<svg width="39" height="40" viewBox="0 0 39 40" fill="none" xmlns="http://www.w3.org/2000/svg">
<path d="M13.9691 13.1531V19.1478M13.9691 13.1531C13.9691 12.0496 13.0744 11.1549 11.9709 11.1549C10.8673 11.1549 9.97266 12.0496 9.97266 13.1531V27.1406C9.97266 32.4378 14.2669 36.732 19.5641 36.732C24.8612 36.732 29.1555 32.4378 29.1555 27.1406V16.3503C29.1555 15.2467 28.2608 14.3521 27.1572 14.3521C26.7074 14.3521 26.2923 14.5007 25.9583 14.7516M13.9691 13.1531V6.75888C13.9691 5.6553 14.8637 4.76068 15.9673 4.76068C17.0709 4.76068 17.9655 5.6553 17.9655 6.75888M17.9655 6.75888V15.9506M17.9655 6.75888V5.16032C17.9655 4.05674 18.8601 3.16211 19.9637 3.16211C21.0673 3.16211 21.9619 4.05674 21.9619 5.16032V8.35745M21.9619 8.35745V15.9506M21.9619 8.35745C21.9619 7.25387 22.8565 6.35924 23.9601 6.35924C25.0637 6.35924 25.9583 7.25387 25.9583 8.35745V14.7516M25.9583 14.7516C25.473 15.1161 25.159 15.6965 25.159 16.3503V20.7463C23.0863 21.5647 21.5825 23.4194 21.2377 25.6796" stroke="#2A638B" stroke-width="1.79839" stroke-linecap="round" stroke-linejoin="round"/>
</svg>
