<svg width="162" height="228" viewBox="0 0 162 228" fill="none" xmlns="http://www.w3.org/2000/svg">
<path d="M58.6588 227.922L58.452 198.638L46.0215 173.842L28.165 155.471C29.1226 154.666 31.9007 150.828 32.9942 151.39L51.1344 169.601C52.4288 174.156 65.2907 194.775 65.2907 197.537V221.262H76.7931V207.959H83.431V221.262H123.252V188.003H83.431V201.305H76.7931V186.003L46.3112 155.317C46.0807 154.442 49.1838 151.295 50.0113 150.721C50.4014 150.449 50.6083 150.088 51.1285 150.502L81.4154 180.934L87.8522 181.348L62.1876 138.998V83.7827L68.0984 83.8419L68.8254 84.8888L69.1623 137.324L95.1462 180.911L99.3487 181.135L88.7389 139.442V70.9238H95.3767V138.554L105.992 181.348H129.884V221.262H141.83V207.959H148.467V227.916H58.6588V227.922Z" fill="#181C20"/>
<path d="M94.4943 0.86139C102.196 1.861 108.373 9.71594 108.657 17.2692C115.868 12.3303 125.615 13.2826 131.206 20.1616C133.039 22.4211 135.196 27.0169 135.196 29.9093V37.226C147.083 29.5426 160.666 36.8297 161.735 50.7592L161.712 148.733L148.466 175.368V201.31H141.828V176.255L124.096 143.924L129.841 141.026L144.488 168.051L154.891 148.106L155.044 50.3629C153.839 39.1601 139.617 37.1491 135.533 47.5474L135.19 103.082L134.463 104.129L128.552 104.188V29.9093C128.552 21.942 116.506 17.4171 110.92 24.2133C110.56 24.651 108.639 27.9101 108.639 28.1348V54.0774H102.001V16.6008C102.001 14.8914 100.003 11.3544 98.7027 10.1477C93.0638 4.91307 84.3513 7.74629 82.1939 14.9269L82.0934 103.082L81.3664 104.129L75.4556 104.188V29.9093C75.4556 21.942 63.4094 17.4171 57.8237 24.2133C57.4631 24.651 55.5421 27.9101 55.5421 28.1348V54.0774H48.9043V27.6912C48.9043 26.94 50.3997 23.4621 50.8785 22.5749C54.6791 15.5657 63.3325 12.5669 70.8274 15.0275C72.512 15.5835 73.8124 16.7487 75.4497 17.2633C75.231 8.91743 81.4077 2.72457 89.1686 0.855475C90.8591 1.00926 92.8392 0.64254 94.4765 0.855475L94.4943 0.86139Z" fill="#181C20"/>
<path d="M55.5608 60.7325V145.439L23.2701 113.28C13.1745 105.242 1.33517 117.758 9.11969 127.464L27.4963 145.883C27.8746 146.616 24.405 150.201 23.7075 150.562C23.1874 150.828 22.9746 150.774 22.5904 150.343C17.1879 143.901 9.18471 138.134 4.01867 131.693C-5.67503 119.621 3.33302 102.681 18.6183 104.195C28.8795 105.212 39.4539 122.111 47.599 128.363C48.0423 128.706 48.1546 129.221 48.9289 129.025V60.7266H55.5667L55.5608 60.7325Z" fill="#181C20"/>
<path d="M108.657 60.7324V103.526L126.348 135.017L120.816 138.312L102.02 105.301V60.7324H108.657Z" fill="#181C20"/>
<path d="M116.621 194.662V214.619H90.0752V194.662H116.621ZM109.983 201.31H96.7071V207.965H109.983V201.31Z" fill="#181C20"/>
<path d="M88.7451 50.9707V30.5703L95.1879 30.9844L95.3179 50.2431C94.8569 51.6568 90.0928 50.6986 88.7451 50.9707Z" fill="#181C20"/>
<path d="M62.2002 64.2734V43.873C63.5479 44.1451 68.312 43.1869 68.773 44.6005L68.643 63.8593L62.2002 64.2734Z" fill="#181C20"/>
<path d="M148.48 121.928H141.842V141.884H148.48V121.928Z" fill="#181C20"/>
<path d="M27.0829 126.84L36.5284 135.901L31.8293 140.527C31.2146 140.639 23.0281 132.429 22.8685 131.82C22.5316 130.537 26.1904 127.875 27.0829 126.84Z" fill="#181C20"/>
<path d="M88.7451 24.3635V17.2656L95.1879 17.6797C95.3948 18.8745 95.7553 23.6182 94.9692 24.1683L88.7451 24.3635Z" fill="#181C20"/>
<path d="M62.2002 37.6681V30.5703L68.643 30.9844C68.8498 32.1792 69.2104 36.9229 68.4243 37.473L62.2002 37.6681Z" fill="#181C20"/>
<path d="M88.7451 64.2736V57.1758L94.9692 57.371C95.7553 57.9211 95.4007 62.6648 95.1879 63.8596L88.7451 64.2736Z" fill="#181C20"/>
<path d="M62.2002 77.5842V70.4863L68.643 70.9004C68.8498 72.0952 69.2104 76.8389 68.4243 77.389L62.2002 77.5842Z" fill="#181C20"/>
<path d="M17.7898 117.523L22.3471 122.09L17.7307 126.378L13.0967 122.149L17.7898 117.523Z" fill="#181C20"/>
<path d="M41.245 141.033L45.7963 145.594L41.18 149.888L36.5459 145.659L41.245 141.033Z" fill="#181C20"/>
<path d="M148.48 108.625H141.842V115.279H148.48V108.625Z" fill="#181C20"/>
<path d="M123.257 168.051C121.052 168.009 118.824 168.08 116.619 168.051V161.396H123.257C123.287 163.609 123.216 165.839 123.257 168.051C125.462 168.092 127.69 168.021 129.895 168.051V174.705H123.257C123.227 172.493 123.298 170.263 123.257 168.051Z" fill="#181C20"/>
</svg>
