<svg width="781" height="298" viewBox="0 0 781 298" fill="none" xmlns="http://www.w3.org/2000/svg">
<path d="M58.6588 264.922L58.452 235.638L46.0215 210.842L28.165 192.471C29.1226 191.666 31.9007 187.828 32.9942 188.39L51.1344 206.601C52.4288 211.156 65.2907 231.775 65.2907 234.537V258.262H76.7931V244.959H83.431V258.262H123.252V225.003H83.431V238.305H76.7931V223.003L46.3112 192.317C46.0807 191.442 49.1838 188.295 50.0113 187.721C50.4014 187.449 50.6083 187.088 51.1285 187.502L81.4154 217.934L87.8522 218.348L62.1876 175.998V120.783L68.0984 120.842L68.8254 121.889L69.1623 174.324L95.1462 217.911L99.3487 218.135L88.7389 176.442V107.924H95.3767V175.554L105.992 218.348H129.884V258.262H141.83V244.959H148.467V264.916H58.6588V264.922Z" fill="#181C20"/>
<path d="M94.4943 37.8614C102.196 38.861 108.373 46.7159 108.657 54.2692C115.868 49.3303 125.615 50.2826 131.206 57.1616C133.039 59.4211 135.196 64.0169 135.196 66.9093V74.226C147.083 66.5426 160.666 73.8297 161.735 87.7592L161.712 185.733L148.466 212.368V238.31H141.828V213.255L124.096 180.924L129.841 178.026L144.488 205.051L154.891 185.106L155.044 87.3629C153.839 76.1601 139.617 74.1491 135.533 84.5474L135.19 140.082L134.463 141.129L128.552 141.188V66.9093C128.552 58.942 116.506 54.4171 110.92 61.2133C110.56 61.651 108.639 64.9101 108.639 65.1348V91.0774H102.001V53.6008C102.001 51.8914 100.003 48.3544 98.7027 47.1477C93.0638 41.9131 84.3513 44.7463 82.1939 51.9269L82.0934 140.082L81.3664 141.129L75.4556 141.188V66.9093C75.4556 58.942 63.4094 54.4171 57.8237 61.2133C57.4631 61.651 55.5421 64.9101 55.5421 65.1348V91.0774H48.9043V64.6912C48.9043 63.94 50.3997 60.4621 50.8785 59.5749C54.6791 52.5657 63.3325 49.5669 70.8274 52.0275C72.512 52.5835 73.8124 53.7487 75.4497 54.2633C75.231 45.9174 81.4077 39.7246 89.1686 37.8555C90.8591 38.0093 92.8392 37.6425 94.4765 37.8555L94.4943 37.8614Z" fill="#181C20"/>
<path d="M55.5608 97.7325V182.439L23.2701 150.28C13.1745 142.242 1.33517 154.758 9.11969 164.464L27.4963 182.883C27.8746 183.616 24.405 187.201 23.7075 187.562C23.1874 187.828 22.9746 187.774 22.5904 187.343C17.1879 180.901 9.18471 175.134 4.01867 168.693C-5.67503 156.621 3.33302 139.681 18.6183 141.195C28.8795 142.212 39.4539 159.111 47.599 165.363C48.0423 165.706 48.1546 166.221 48.9289 166.025V97.7266H55.5667L55.5608 97.7325Z" fill="#181C20"/>
<path d="M108.657 97.7324V140.526L126.348 172.017L120.816 175.312L102.02 142.301V97.7324H108.657Z" fill="#181C20"/>
<path d="M116.621 231.662V251.619H90.0752V231.662H116.621ZM109.983 238.31H96.7071V244.965H109.983V238.31Z" fill="#181C20"/>
<path d="M88.7451 87.9707V67.5703L95.1879 67.9844L95.3179 87.2431C94.8569 88.6568 90.0928 87.6986 88.7451 87.9707Z" fill="#181C20"/>
<path d="M62.2002 101.273V80.873C63.5479 81.1451 68.312 80.1869 68.773 81.6005L68.643 100.859L62.2002 101.273Z" fill="#181C20"/>
<path d="M148.48 158.928H141.842V178.884H148.48V158.928Z" fill="#181C20"/>
<path d="M27.0829 163.84L36.5284 172.901L31.8293 177.527C31.2146 177.639 23.0281 169.429 22.8685 168.82C22.5316 167.537 26.1904 164.875 27.0829 163.84Z" fill="#181C20"/>
<path d="M88.7451 61.3635V54.2656L95.1879 54.6797C95.3948 55.8745 95.7553 60.6182 94.9692 61.1683L88.7451 61.3635Z" fill="#181C20"/>
<path d="M62.2002 74.6681V67.5703L68.643 67.9844C68.8498 69.1792 69.2104 73.9229 68.4243 74.473L62.2002 74.6681Z" fill="#181C20"/>
<path d="M88.7451 101.274V94.1758L94.9692 94.371C95.7553 94.9211 95.4007 99.6648 95.1879 100.86L88.7451 101.274Z" fill="#181C20"/>
<path d="M62.2002 114.584V107.486L68.643 107.9C68.8498 109.095 69.2104 113.839 68.4243 114.389L62.2002 114.584Z" fill="#181C20"/>
<path d="M17.7898 154.523L22.3471 159.09L17.7307 163.378L13.0967 159.149L17.7898 154.523Z" fill="#181C20"/>
<path d="M41.245 178.033L45.7963 182.594L41.18 186.888L36.5459 182.659L41.245 178.033Z" fill="#181C20"/>
<path d="M148.48 145.625H141.842V152.279H148.48V145.625Z" fill="#181C20"/>
<path d="M123.257 205.051C121.052 205.009 118.824 205.08 116.619 205.051V198.396H123.257C123.287 200.609 123.216 202.839 123.257 205.051C125.462 205.092 127.69 205.021 129.895 205.051V211.705H123.257C123.227 209.493 123.298 207.263 123.257 205.051Z" fill="#181C20"/>
<path d="M231.401 136.219H220.663V184.85C220.663 191.251 219.252 195.967 216.429 198.995C213.607 202.024 209.925 203.538 205.382 203.538C200.494 203.538 196.709 201.955 194.024 198.789C191.34 195.622 189.997 190.976 189.997 184.85V68.3828C189.997 61.7747 191.477 56.9907 194.437 54.0309C197.397 51.071 202.181 49.5911 208.789 49.5911H258.659C265.543 49.5911 271.428 49.9008 276.315 50.5204C281.202 51.071 285.608 52.2412 289.531 54.0309C294.281 56.0271 298.48 58.8837 302.128 62.6007C305.776 66.3178 308.529 70.6543 310.388 75.6103C312.315 80.4976 313.279 85.6945 313.279 91.2012C313.279 102.49 310.078 111.507 303.677 118.253C297.344 124.999 287.707 129.783 274.766 132.605C280.204 135.496 285.401 139.764 290.357 145.408C295.313 151.052 299.719 157.075 303.573 163.477C307.497 169.81 310.526 175.557 312.659 180.72C314.862 185.814 315.963 189.324 315.963 191.251C315.963 193.248 315.31 195.244 314.002 197.24C312.763 199.167 311.042 200.682 308.839 201.783C306.636 202.953 304.09 203.538 301.199 203.538C297.757 203.538 294.866 202.712 292.525 201.06C290.185 199.477 288.155 197.446 286.434 194.968C284.782 192.49 282.51 188.842 279.619 184.024L267.332 163.58C262.927 156.077 258.969 150.364 255.458 146.441C252.017 142.517 248.506 139.832 244.927 138.387C241.347 136.941 236.839 136.219 231.401 136.219ZM248.954 72.6161H220.663V114.226H248.128C255.493 114.226 261.688 113.607 266.713 112.368C271.738 111.06 275.558 108.892 278.174 105.863C280.858 102.765 282.2 98.5321 282.2 93.163C282.2 88.9641 281.133 85.2815 279 82.1152C276.866 78.88 273.906 76.4708 270.12 74.8876C266.541 73.3732 259.485 72.6161 248.954 72.6161ZM393.505 178.139L369.241 81.7021V186.192C369.241 191.974 367.933 196.311 365.317 199.202C362.771 202.093 359.363 203.538 355.096 203.538C350.966 203.538 347.593 202.127 344.977 199.305C342.361 196.414 341.053 192.043 341.053 186.192V66.421C341.053 59.8129 342.774 55.3731 346.216 53.1016C349.658 50.7613 354.304 49.5911 360.155 49.5911H369.654C375.367 49.5911 379.497 50.1073 382.044 51.1399C384.66 52.1724 386.587 54.0309 387.826 56.7154C389.065 59.3999 390.476 63.7709 392.059 69.8283L414.052 152.739L436.044 69.8283C437.628 63.7709 439.039 59.3999 440.278 56.7154C441.517 54.0309 443.41 52.1724 445.956 51.1399C448.572 50.1073 452.737 49.5911 458.45 49.5911H467.949C473.8 49.5911 478.446 50.7613 481.888 53.1016C485.329 55.3731 487.05 59.8129 487.05 66.421V186.192C487.05 191.974 485.742 196.311 483.127 199.202C480.58 202.093 477.138 203.538 472.802 203.538C468.74 203.538 465.402 202.093 462.786 199.202C460.171 196.311 458.863 191.974 458.863 186.192V81.7021L434.599 178.139C433.016 184.402 431.708 189.014 430.675 191.974C429.712 194.865 427.888 197.515 425.203 199.925C422.518 202.334 418.801 203.538 414.052 203.538C410.473 203.538 407.444 202.747 404.966 201.164C402.488 199.649 400.56 197.687 399.184 195.278C397.807 192.869 396.706 190.219 395.88 187.328C395.123 184.368 394.331 181.305 393.505 178.139ZM616.837 74.8876H583.384V184.85C583.384 191.183 581.972 195.898 579.15 198.995C576.328 202.024 572.68 203.538 568.206 203.538C563.663 203.538 559.946 201.99 557.055 198.892C554.232 195.794 552.821 191.114 552.821 184.85V74.8876H519.368C514.137 74.8876 510.247 73.7518 507.701 71.4803C505.154 69.1399 503.88 66.0768 503.88 62.291C503.88 58.3674 505.188 55.2699 507.804 52.9984C510.488 50.7269 514.343 49.5911 519.368 49.5911H616.837C622.137 49.5911 626.061 50.7613 628.607 53.1016C631.223 55.442 632.531 58.5051 632.531 62.291C632.531 66.0768 631.223 69.1399 628.607 71.4803C625.992 73.7518 622.068 74.8876 616.837 74.8876ZM765.725 155.527C765.725 164.682 763.35 172.907 758.6 180.204C753.92 187.5 747.036 193.213 737.95 197.343C728.864 201.473 718.092 203.538 705.633 203.538C690.696 203.538 678.374 200.716 668.669 195.072C661.785 191.011 656.175 185.607 651.839 178.861C647.571 172.047 645.437 165.439 645.437 159.037C645.437 155.32 646.711 152.154 649.258 149.538C651.873 146.854 655.177 145.511 659.17 145.511C662.405 145.511 665.124 146.544 667.327 148.609C669.598 150.674 671.525 153.737 673.109 157.798C675.036 162.617 677.101 166.643 679.304 169.878C681.575 173.114 684.742 175.798 688.803 177.932C692.864 179.997 698.199 181.03 704.807 181.03C713.893 181.03 721.258 178.93 726.902 174.731C732.616 170.464 735.472 165.163 735.472 158.831C735.472 153.806 733.923 149.745 730.826 146.647C727.797 143.481 723.839 141.071 718.952 139.419C714.134 137.767 707.663 136.012 699.541 134.154C688.665 131.607 679.545 128.647 672.179 125.274C664.883 121.832 659.066 117.186 654.73 111.335C650.462 105.415 648.328 98.0846 648.328 89.3427C648.328 81.0138 650.6 73.6142 655.143 67.1438C659.686 60.6734 666.26 55.7173 674.864 52.2756C683.468 48.7651 693.587 47.0098 705.22 47.0098C714.512 47.0098 722.531 48.18 729.277 50.5204C736.092 52.7919 741.736 55.855 746.21 59.7097C750.685 63.4956 753.954 67.4879 756.019 71.6868C758.084 75.8857 759.117 79.9813 759.117 83.9737C759.117 87.6219 757.809 90.9259 755.193 93.8858C752.646 96.7768 749.445 98.2223 745.591 98.2223C742.08 98.2223 739.396 97.3619 737.537 95.641C735.748 93.8513 733.786 90.9603 731.652 86.9679C728.899 81.2547 725.595 76.8149 721.74 73.6486C717.885 70.4134 711.69 68.7958 703.155 68.7958C695.239 68.7958 688.837 70.551 683.95 74.0616C679.132 77.5033 676.722 81.6677 676.722 86.5549C676.722 89.5836 677.548 92.1993 679.2 94.402C680.852 96.6047 683.124 98.4976 686.015 100.081C688.906 101.664 691.831 102.903 694.791 103.798C697.751 104.693 702.638 106.001 709.453 107.721C717.988 109.718 725.698 111.92 732.581 114.329C739.533 116.739 745.419 119.664 750.237 123.106C755.124 126.547 758.91 130.918 761.595 136.219C764.348 141.45 765.725 147.886 765.725 155.527Z" fill="#181C20"/>
<path d="M202.667 250.544V243.223L197.031 234.486C196.538 233.699 196.186 233.085 195.976 232.644C195.777 232.203 195.677 231.82 195.677 231.495C195.677 230.96 195.882 230.498 196.291 230.109C196.711 229.721 197.225 229.527 197.834 229.527C198.474 229.527 198.957 229.711 199.282 230.078C199.618 230.435 200.117 231.154 200.778 232.235L205.091 239.24L209.452 232.235C209.715 231.804 209.935 231.442 210.113 231.148C210.292 230.855 210.486 230.582 210.696 230.33C210.916 230.067 211.158 229.868 211.42 229.732C211.682 229.595 212.003 229.527 212.38 229.527C212.968 229.527 213.456 229.721 213.845 230.109C214.243 230.487 214.443 230.928 214.443 231.432C214.443 231.841 214.343 232.251 214.144 232.66C213.944 233.069 213.603 233.636 213.12 234.36L207.343 243.223V250.544C207.343 251.499 207.122 252.213 206.681 252.685C206.241 253.157 205.679 253.394 204.997 253.394C204.304 253.394 203.743 253.163 203.312 252.701C202.882 252.229 202.667 251.51 202.667 250.544ZM227.384 229.527C229.777 229.527 231.828 230.015 233.539 230.991C235.26 231.957 236.562 233.337 237.444 235.132C238.325 236.916 238.766 239.015 238.766 241.429C238.766 243.213 238.525 244.835 238.042 246.293C237.559 247.752 236.835 249.017 235.869 250.088C234.904 251.158 233.718 251.977 232.311 252.543C230.905 253.11 229.294 253.394 227.478 253.394C225.673 253.394 224.057 253.105 222.629 252.528C221.202 251.94 220.011 251.116 219.056 250.056C218.1 248.996 217.376 247.721 216.883 246.23C216.4 244.74 216.159 243.129 216.159 241.397C216.159 239.624 216.411 237.997 216.914 236.517C217.429 235.037 218.169 233.778 219.134 232.739C220.1 231.7 221.275 230.907 222.661 230.361C224.046 229.805 225.62 229.527 227.384 229.527ZM234.027 241.397C234.027 239.708 233.754 238.243 233.209 237.005C232.663 235.766 231.881 234.832 230.863 234.203C229.855 233.562 228.696 233.242 227.384 233.242C226.45 233.242 225.584 233.421 224.786 233.778C223.999 234.124 223.317 234.633 222.739 235.305C222.173 235.976 221.721 236.837 221.386 237.887C221.06 238.926 220.897 240.096 220.897 241.397C220.897 242.709 221.06 243.895 221.386 244.955C221.721 246.015 222.188 246.897 222.787 247.6C223.395 248.293 224.088 248.812 224.865 249.159C225.652 249.505 226.513 249.678 227.447 249.678C228.643 249.678 229.74 249.379 230.737 248.781C231.745 248.183 232.542 247.259 233.13 246.01C233.728 244.761 234.027 243.223 234.027 241.397ZM242.796 243.46V232.361C242.796 231.416 243.006 230.708 243.426 230.235C243.856 229.763 244.418 229.527 245.11 229.527C245.835 229.527 246.407 229.763 246.826 230.235C247.257 230.708 247.472 231.416 247.472 232.361V243.712C247.472 245.002 247.614 246.084 247.897 246.955C248.191 247.815 248.705 248.487 249.44 248.97C250.175 249.442 251.203 249.678 252.525 249.678C254.352 249.678 255.643 249.195 256.398 248.23C257.154 247.254 257.532 245.779 257.532 243.806V232.361C257.532 231.406 257.742 230.697 258.162 230.235C258.581 229.763 259.143 229.527 259.846 229.527C260.549 229.527 261.116 229.763 261.546 230.235C261.987 230.697 262.208 231.406 262.208 232.361V243.46C262.208 245.265 262.029 246.771 261.672 247.978C261.326 249.185 260.665 250.245 259.689 251.158C258.849 251.935 257.873 252.501 256.76 252.858C255.648 253.215 254.346 253.394 252.856 253.394C251.082 253.394 249.555 253.205 248.275 252.827C246.994 252.438 245.95 251.846 245.142 251.048C244.334 250.24 243.741 249.211 243.363 247.962C242.985 246.703 242.796 245.202 242.796 243.46ZM273.543 243.129H271.905V250.544C271.905 251.52 271.69 252.239 271.26 252.701C270.83 253.163 270.268 253.394 269.575 253.394C268.83 253.394 268.253 253.152 267.844 252.669C267.434 252.187 267.23 251.478 267.23 250.544V232.786C267.23 231.778 267.455 231.049 267.907 230.597C268.358 230.146 269.087 229.921 270.095 229.921H277.699C278.748 229.921 279.646 229.968 280.391 230.062C281.136 230.146 281.808 230.325 282.406 230.597C283.13 230.902 283.77 231.337 284.327 231.904C284.883 232.471 285.303 233.132 285.586 233.888C285.88 234.633 286.027 235.425 286.027 236.265C286.027 237.986 285.539 239.361 284.563 240.39C283.597 241.418 282.128 242.148 280.155 242.578C280.984 243.019 281.776 243.67 282.532 244.53C283.288 245.391 283.959 246.309 284.547 247.285C285.145 248.251 285.607 249.127 285.932 249.914C286.268 250.691 286.436 251.226 286.436 251.52C286.436 251.825 286.337 252.129 286.137 252.433C285.948 252.727 285.686 252.958 285.35 253.126C285.014 253.304 284.626 253.394 284.185 253.394C283.66 253.394 283.219 253.268 282.863 253.016C282.506 252.774 282.196 252.465 281.934 252.087C281.682 251.709 281.335 251.153 280.895 250.418L279.021 247.301C278.35 246.157 277.746 245.286 277.211 244.688C276.686 244.089 276.151 243.68 275.605 243.46C275.059 243.239 274.372 243.129 273.543 243.129ZM276.219 233.431H271.905V239.776H276.093C277.216 239.776 278.161 239.681 278.927 239.492C279.693 239.293 280.275 238.962 280.674 238.501C281.084 238.028 281.288 237.383 281.288 236.564C281.288 235.924 281.126 235.362 280.8 234.88C280.475 234.386 280.024 234.019 279.446 233.778C278.901 233.547 277.825 233.431 276.219 233.431ZM303.234 232.361V238.973H313.326V232.361C313.326 231.416 313.535 230.708 313.955 230.235C314.386 229.763 314.947 229.527 315.64 229.527C316.343 229.527 316.91 229.763 317.34 230.235C317.781 230.697 318.001 231.406 318.001 232.361V250.544C318.001 251.499 317.781 252.213 317.34 252.685C316.899 253.157 316.333 253.394 315.64 253.394C314.937 253.394 314.375 253.157 313.955 252.685C313.535 252.202 313.326 251.489 313.326 250.544V242.783H303.234V250.544C303.234 251.499 303.014 252.213 302.573 252.685C302.132 253.157 301.565 253.394 300.873 253.394C300.17 253.394 299.608 253.157 299.188 252.685C298.768 252.202 298.558 251.489 298.558 250.544V232.361C298.558 231.416 298.763 230.708 299.172 230.235C299.592 229.763 300.159 229.527 300.873 229.527C301.576 229.527 302.143 229.763 302.573 230.235C303.014 230.697 303.234 231.406 303.234 232.361ZM338.231 233.526H327.699V239.193H337.397C338.111 239.193 338.641 239.356 338.987 239.681C339.344 239.996 339.522 240.416 339.522 240.941C339.522 241.466 339.349 241.896 339.003 242.232C338.656 242.557 338.121 242.72 337.397 242.72H327.699V249.285H338.593C339.328 249.285 339.879 249.458 340.246 249.804C340.624 250.14 340.813 250.591 340.813 251.158C340.813 251.704 340.624 252.15 340.246 252.496C339.879 252.832 339.328 253 338.593 253H325.889C324.871 253 324.136 252.774 323.685 252.323C323.244 251.872 323.023 251.142 323.023 250.135V232.786C323.023 232.114 323.123 231.568 323.322 231.148C323.522 230.718 323.832 230.409 324.251 230.22C324.682 230.02 325.227 229.921 325.889 229.921H338.231C338.976 229.921 339.527 230.088 339.884 230.424C340.252 230.75 340.435 231.18 340.435 231.715C340.435 232.261 340.252 232.702 339.884 233.038C339.527 233.363 338.976 233.526 338.231 233.526ZM359.296 250.387L358.194 247.49H348.811L347.709 250.45C347.278 251.604 346.911 252.386 346.607 252.795C346.302 253.194 345.804 253.394 345.111 253.394C344.523 253.394 344.004 253.178 343.552 252.748C343.101 252.318 342.875 251.83 342.875 251.284C342.875 250.969 342.928 250.644 343.033 250.308C343.138 249.972 343.311 249.505 343.552 248.907L349.456 233.919C349.624 233.489 349.823 232.975 350.054 232.376C350.296 231.768 350.548 231.264 350.81 230.865C351.083 230.466 351.435 230.146 351.865 229.905C352.306 229.653 352.846 229.527 353.486 229.527C354.137 229.527 354.678 229.653 355.108 229.905C355.549 230.146 355.9 230.461 356.163 230.849C356.436 231.238 356.661 231.658 356.84 232.109C357.029 232.55 357.265 233.143 357.548 233.888L363.578 248.781C364.05 249.914 364.286 250.738 364.286 251.253C364.286 251.788 364.061 252.281 363.609 252.732C363.168 253.173 362.633 253.394 362.003 253.394C361.636 253.394 361.321 253.325 361.059 253.189C360.796 253.063 360.576 252.89 360.398 252.669C360.219 252.438 360.025 252.092 359.815 251.63C359.616 251.158 359.443 250.743 359.296 250.387ZM350.039 243.979H356.934L353.455 234.455L350.039 243.979ZM372.315 232.361V249.159H381.793C382.548 249.159 383.125 249.342 383.524 249.71C383.934 250.077 384.138 250.539 384.138 251.095C384.138 251.662 383.939 252.124 383.54 252.48C383.141 252.827 382.559 253 381.793 253H370.505C369.487 253 368.752 252.774 368.301 252.323C367.86 251.872 367.639 251.142 367.639 250.135V232.361C367.639 231.416 367.849 230.708 368.269 230.235C368.699 229.763 369.261 229.527 369.954 229.527C370.657 229.527 371.224 229.763 371.654 230.235C372.095 230.697 372.315 231.406 372.315 232.361ZM398.181 233.778H393.08V250.544C393.08 251.51 392.865 252.229 392.435 252.701C392.005 253.163 391.448 253.394 390.766 253.394C390.073 253.394 389.507 253.157 389.066 252.685C388.636 252.213 388.42 251.499 388.42 250.544V233.778H383.32C382.522 233.778 381.929 233.604 381.541 233.258C381.152 232.901 380.958 232.434 380.958 231.857C380.958 231.259 381.158 230.786 381.556 230.44C381.966 230.094 382.553 229.921 383.32 229.921H398.181C398.989 229.921 399.588 230.099 399.976 230.456C400.375 230.813 400.574 231.28 400.574 231.857C400.574 232.434 400.375 232.901 399.976 233.258C399.577 233.604 398.979 233.778 398.181 233.778ZM408.052 232.361V238.973H418.144V232.361C418.144 231.416 418.353 230.708 418.773 230.235C419.204 229.763 419.765 229.527 420.458 229.527C421.161 229.527 421.728 229.763 422.158 230.235C422.599 230.697 422.819 231.406 422.819 232.361V250.544C422.819 251.499 422.599 252.213 422.158 252.685C421.717 253.157 421.15 253.394 420.458 253.394C419.755 253.394 419.193 253.157 418.773 252.685C418.353 252.202 418.144 251.489 418.144 250.544V242.783H408.052V250.544C408.052 251.499 407.832 252.213 407.391 252.685C406.95 253.157 406.383 253.394 405.691 253.394C404.987 253.394 404.426 253.157 404.006 252.685C403.586 252.202 403.376 251.489 403.376 250.544V232.361C403.376 231.416 403.581 230.708 403.99 230.235C404.41 229.763 404.977 229.527 405.691 229.527C406.394 229.527 406.961 229.763 407.391 230.235C407.832 230.697 408.052 231.406 408.052 232.361ZM430.455 253.425C429.762 253.425 429.164 253.215 428.66 252.795C428.156 252.365 427.904 251.767 427.904 251.001C427.904 250.339 428.151 249.783 428.644 249.332C429.137 248.881 429.72 248.655 430.392 248.655C430.895 248.655 431.352 248.791 431.761 249.064C432.171 249.337 432.491 249.741 432.722 250.276C432.953 250.801 433.068 251.452 433.068 252.229C433.068 253.268 432.848 254.238 432.407 255.141C431.966 256.054 431.425 256.773 430.785 257.298C430.156 257.833 429.584 258.101 429.069 258.101C428.744 258.101 428.476 257.991 428.266 257.77C428.067 257.56 427.967 257.314 427.967 257.03C427.967 256.6 428.182 256.254 428.613 255.991C429.841 255.309 430.455 254.454 430.455 253.425ZM456.163 229.527C458.556 229.527 460.608 230.015 462.319 230.991C464.04 231.957 465.341 233.337 466.223 235.132C467.105 236.916 467.546 239.015 467.546 241.429C467.546 243.213 467.304 244.835 466.821 246.293C466.339 247.752 465.614 249.017 464.649 250.088C463.683 251.158 462.497 251.977 461.091 252.543C459.684 253.11 458.073 253.394 456.258 253.394C454.452 253.394 452.836 253.105 451.409 252.528C449.981 251.94 448.79 251.116 447.835 250.056C446.88 248.996 446.156 247.721 445.663 246.23C445.18 244.74 444.938 243.129 444.938 241.397C444.938 239.624 445.19 237.997 445.694 236.517C446.208 235.037 446.948 233.778 447.914 232.739C448.879 231.7 450.055 230.907 451.44 230.361C452.826 229.805 454.4 229.527 456.163 229.527ZM462.807 241.397C462.807 239.708 462.534 238.243 461.988 237.005C461.442 235.766 460.661 234.832 459.642 234.203C458.635 233.562 457.475 233.242 456.163 233.242C455.229 233.242 454.363 233.421 453.566 233.778C452.778 234.124 452.096 234.633 451.519 235.305C450.952 235.976 450.501 236.837 450.165 237.887C449.84 238.926 449.677 240.096 449.677 241.397C449.677 242.709 449.84 243.895 450.165 244.955C450.501 246.015 450.968 246.897 451.566 247.6C452.175 248.293 452.868 248.812 453.644 249.159C454.431 249.505 455.292 249.678 456.226 249.678C457.423 249.678 458.519 249.379 459.517 248.781C460.524 248.183 461.322 247.259 461.909 246.01C462.508 244.761 462.807 243.223 462.807 241.397ZM471.576 243.46V232.361C471.576 231.416 471.786 230.708 472.206 230.235C472.636 229.763 473.197 229.527 473.89 229.527C474.614 229.527 475.186 229.763 475.606 230.235C476.036 230.708 476.251 231.416 476.251 232.361V243.712C476.251 245.002 476.393 246.084 476.677 246.955C476.97 247.815 477.485 248.487 478.219 248.97C478.954 249.442 479.983 249.678 481.305 249.678C483.131 249.678 484.422 249.195 485.178 248.23C485.934 247.254 486.311 245.779 486.311 243.806V232.361C486.311 231.406 486.521 230.697 486.941 230.235C487.361 229.763 487.922 229.527 488.626 229.527C489.329 229.527 489.896 229.763 490.326 230.235C490.767 230.697 490.987 231.406 490.987 232.361V243.46C490.987 245.265 490.809 246.771 490.452 247.978C490.105 249.185 489.444 250.245 488.468 251.158C487.629 251.935 486.652 252.501 485.54 252.858C484.427 253.215 483.126 253.394 481.636 253.394C479.862 253.394 478.335 253.205 477.054 252.827C475.774 252.438 474.73 251.846 473.922 251.048C473.113 250.24 472.52 249.211 472.143 247.962C471.765 246.703 471.576 245.202 471.576 243.46ZM502.322 243.129H500.685V250.544C500.685 251.52 500.47 252.239 500.039 252.701C499.609 253.163 499.048 253.394 498.355 253.394C497.61 253.394 497.032 253.152 496.623 252.669C496.214 252.187 496.009 251.478 496.009 250.544V232.786C496.009 231.778 496.235 231.049 496.686 230.597C497.137 230.146 497.867 229.921 498.874 229.921H506.478C507.528 229.921 508.425 229.968 509.17 230.062C509.916 230.146 510.587 230.325 511.186 230.597C511.91 230.902 512.55 231.337 513.106 231.904C513.662 232.471 514.082 233.132 514.366 233.888C514.66 234.633 514.806 235.425 514.806 236.265C514.806 237.986 514.318 239.361 513.342 240.39C512.377 241.418 510.907 242.148 508.934 242.578C509.763 243.019 510.556 243.67 511.311 244.53C512.067 245.391 512.739 246.309 513.327 247.285C513.925 248.251 514.387 249.127 514.712 249.914C515.048 250.691 515.216 251.226 515.216 251.52C515.216 251.825 515.116 252.129 514.917 252.433C514.728 252.727 514.465 252.958 514.13 253.126C513.794 253.304 513.405 253.394 512.965 253.394C512.44 253.394 511.999 253.268 511.642 253.016C511.285 252.774 510.976 252.465 510.713 252.087C510.461 251.709 510.115 251.153 509.674 250.418L507.801 247.301C507.129 246.157 506.526 245.286 505.99 244.688C505.466 244.089 504.93 243.68 504.385 243.46C503.839 243.239 503.151 243.129 502.322 243.129ZM504.998 233.431H500.685V239.776H504.873C505.996 239.776 506.94 239.681 507.706 239.492C508.472 239.293 509.055 238.962 509.454 238.501C509.863 238.028 510.068 237.383 510.068 236.564C510.068 235.924 509.905 235.362 509.58 234.88C509.254 234.386 508.803 234.019 508.226 233.778C507.68 233.547 506.604 233.431 504.998 233.431ZM542.294 233.778H537.193V250.544C537.193 251.51 536.978 252.229 536.548 252.701C536.117 253.163 535.561 253.394 534.879 253.394C534.186 253.394 533.62 253.157 533.179 252.685C532.748 252.213 532.533 251.499 532.533 250.544V233.778H527.433C526.635 233.778 526.042 233.604 525.654 233.258C525.265 232.901 525.071 232.434 525.071 231.857C525.071 231.259 525.27 230.786 525.669 230.44C526.079 230.094 526.666 229.921 527.433 229.921H542.294C543.102 229.921 543.7 230.099 544.089 230.456C544.488 230.813 544.687 231.28 544.687 231.857C544.687 232.434 544.488 232.901 544.089 233.258C543.69 233.604 543.092 233.778 542.294 233.778ZM562.666 233.526H552.134V239.193H561.831C562.545 239.193 563.075 239.356 563.421 239.681C563.778 239.996 563.957 240.416 563.957 240.941C563.957 241.466 563.783 241.896 563.437 242.232C563.091 242.557 562.555 242.72 561.831 242.72H552.134V249.285H563.028C563.762 249.285 564.313 249.458 564.681 249.804C565.059 250.14 565.248 250.591 565.248 251.158C565.248 251.704 565.059 252.15 564.681 252.496C564.313 252.832 563.762 253 563.028 253H550.323C549.305 253 548.57 252.774 548.119 252.323C547.678 251.872 547.458 251.142 547.458 250.135V232.786C547.458 232.114 547.558 231.568 547.757 231.148C547.956 230.718 548.266 230.409 548.686 230.22C549.116 230.02 549.662 229.921 550.323 229.921H562.666C563.411 229.921 563.962 230.088 564.319 230.424C564.686 230.75 564.87 231.18 564.87 231.715C564.87 232.261 564.686 232.702 564.319 233.038C563.962 233.363 563.411 233.526 562.666 233.526ZM588.626 245.711C588.626 246.446 588.442 247.243 588.075 248.104C587.718 248.954 587.152 249.794 586.375 250.623C585.598 251.441 584.606 252.108 583.399 252.622C582.192 253.136 580.786 253.394 579.18 253.394C577.963 253.394 576.856 253.278 575.858 253.047C574.861 252.816 573.954 252.459 573.135 251.977C572.327 251.483 571.582 250.838 570.899 250.04C570.291 249.316 569.771 248.508 569.341 247.616C568.91 246.713 568.585 245.753 568.365 244.735C568.155 243.717 568.05 242.636 568.05 241.492C568.05 239.634 568.317 237.971 568.853 236.501C569.398 235.032 570.175 233.778 571.183 232.739C572.19 231.689 573.371 230.891 574.725 230.346C576.079 229.8 577.522 229.527 579.054 229.527C580.922 229.527 582.586 229.9 584.045 230.645C585.504 231.39 586.622 232.313 587.398 233.416C588.175 234.507 588.563 235.541 588.563 236.517C588.563 237.052 588.374 237.524 587.996 237.934C587.619 238.343 587.162 238.548 586.627 238.548C586.029 238.548 585.577 238.406 585.273 238.123C584.979 237.839 584.648 237.351 584.281 236.659C583.672 235.515 582.953 234.659 582.124 234.092C581.306 233.526 580.293 233.242 579.086 233.242C577.165 233.242 575.633 233.972 574.489 235.431C573.355 236.89 572.789 238.962 572.789 241.649C572.789 243.444 573.04 244.94 573.544 246.136C574.048 247.322 574.762 248.209 575.685 248.797C576.609 249.384 577.69 249.678 578.928 249.678C580.272 249.678 581.405 249.348 582.329 248.686C583.263 248.015 583.966 247.033 584.438 245.742C584.638 245.134 584.885 244.64 585.178 244.263C585.472 243.874 585.945 243.68 586.595 243.68C587.152 243.68 587.629 243.874 588.028 244.263C588.427 244.651 588.626 245.134 588.626 245.711ZM597.537 232.361V238.973H607.628V232.361C607.628 231.416 607.838 230.708 608.258 230.235C608.688 229.763 609.25 229.527 609.942 229.527C610.646 229.527 611.212 229.763 611.643 230.235C612.083 230.697 612.304 231.406 612.304 232.361V250.544C612.304 251.499 612.083 252.213 611.643 252.685C611.202 253.157 610.635 253.394 609.942 253.394C609.239 253.394 608.678 253.157 608.258 252.685C607.838 252.202 607.628 251.489 607.628 250.544V242.783H597.537V250.544C597.537 251.499 597.316 252.213 596.876 252.685C596.435 253.157 595.868 253.394 595.175 253.394C594.472 253.394 593.911 253.157 593.491 252.685C593.071 252.202 592.861 251.489 592.861 250.544V232.361C592.861 231.416 593.066 230.708 593.475 230.235C593.895 229.763 594.462 229.527 595.175 229.527C595.878 229.527 596.445 229.763 596.876 230.235C597.316 230.697 597.537 231.406 597.537 232.361ZM623.419 232.329L632.408 245.931V232.203C632.408 231.311 632.597 230.645 632.975 230.204C633.363 229.753 633.882 229.527 634.533 229.527C635.205 229.527 635.735 229.753 636.123 230.204C636.512 230.645 636.706 231.311 636.706 232.203V250.355C636.706 252.381 635.866 253.394 634.187 253.394C633.767 253.394 633.389 253.331 633.053 253.205C632.717 253.089 632.403 252.9 632.109 252.638C631.815 252.376 631.542 252.071 631.29 251.725C631.038 251.368 630.786 251.006 630.534 250.639L621.765 237.194V250.717C621.765 251.599 621.561 252.265 621.151 252.717C620.742 253.168 620.217 253.394 619.577 253.394C618.916 253.394 618.386 253.168 617.987 252.717C617.588 252.255 617.389 251.588 617.389 250.717V232.912C617.389 232.156 617.473 231.563 617.641 231.133C617.84 230.66 618.171 230.277 618.633 229.984C619.094 229.679 619.593 229.527 620.128 229.527C620.548 229.527 620.905 229.595 621.199 229.732C621.503 229.868 621.765 230.052 621.986 230.283C622.217 230.514 622.448 230.813 622.679 231.18C622.92 231.547 623.167 231.93 623.419 232.329ZM651.977 229.527C654.37 229.527 656.421 230.015 658.132 230.991C659.853 231.957 661.155 233.337 662.036 235.132C662.918 236.916 663.359 239.015 663.359 241.429C663.359 243.213 663.118 244.835 662.635 246.293C662.152 247.752 661.428 249.017 660.462 250.088C659.497 251.158 658.311 251.977 656.904 252.543C655.498 253.11 653.887 253.394 652.071 253.394C650.266 253.394 648.65 253.105 647.222 252.528C645.795 251.94 644.604 251.116 643.648 250.056C642.693 248.996 641.969 247.721 641.476 246.23C640.993 244.74 640.752 243.129 640.752 241.397C640.752 239.624 641.004 237.997 641.507 236.517C642.022 235.037 642.762 233.778 643.727 232.739C644.693 231.7 645.868 230.907 647.254 230.361C648.639 229.805 650.213 229.527 651.977 229.527ZM658.62 241.397C658.62 239.708 658.347 238.243 657.802 237.005C657.256 235.766 656.474 234.832 655.456 234.203C654.448 233.562 653.289 233.242 651.977 233.242C651.043 233.242 650.177 233.421 649.379 233.778C648.592 234.124 647.91 234.633 647.332 235.305C646.766 235.976 646.314 236.837 645.978 237.887C645.653 238.926 645.49 240.096 645.49 241.397C645.49 242.709 645.653 243.895 645.978 244.955C646.314 246.015 646.781 246.897 647.38 247.6C647.988 248.293 648.681 248.812 649.458 249.159C650.245 249.505 651.105 249.678 652.04 249.678C653.236 249.678 654.333 249.379 655.33 248.781C656.337 248.183 657.135 247.259 657.723 246.01C658.321 244.761 658.62 243.223 658.62 241.397ZM671.939 232.361V249.159H681.416C682.172 249.159 682.749 249.342 683.148 249.71C683.557 250.077 683.762 250.539 683.762 251.095C683.762 251.662 683.563 252.124 683.164 252.48C682.765 252.827 682.182 253 681.416 253H670.128C669.11 253 668.376 252.774 667.924 252.323C667.484 251.872 667.263 251.142 667.263 250.135V232.361C667.263 231.416 667.473 230.708 667.893 230.235C668.323 229.763 668.885 229.527 669.577 229.527C670.281 229.527 670.847 229.763 671.278 230.235C671.719 230.697 671.939 231.406 671.939 232.361ZM695.396 229.527C697.789 229.527 699.841 230.015 701.552 230.991C703.273 231.957 704.574 233.337 705.456 235.132C706.338 236.916 706.779 239.015 706.779 241.429C706.779 243.213 706.537 244.835 706.054 246.293C705.572 247.752 704.847 249.017 703.882 250.088C702.916 251.158 701.73 251.977 700.324 252.543C698.917 253.11 697.306 253.394 695.491 253.394C693.685 253.394 692.069 253.105 690.642 252.528C689.214 251.94 688.023 251.116 687.068 250.056C686.113 248.996 685.389 247.721 684.896 246.23C684.413 244.74 684.171 243.129 684.171 241.397C684.171 239.624 684.423 237.997 684.927 236.517C685.441 235.037 686.181 233.778 687.147 232.739C688.112 231.7 689.288 230.907 690.673 230.361C692.059 229.805 693.633 229.527 695.396 229.527ZM702.04 241.397C702.04 239.708 701.767 238.243 701.221 237.005C700.675 235.766 699.894 234.832 698.875 234.203C697.868 233.562 696.708 233.242 695.396 233.242C694.462 233.242 693.596 233.421 692.799 233.778C692.011 234.124 691.329 234.633 690.752 235.305C690.185 235.976 689.734 236.837 689.398 237.887C689.073 238.926 688.91 240.096 688.91 241.397C688.91 242.709 689.073 243.895 689.398 244.955C689.734 246.015 690.201 246.897 690.799 247.6C691.408 248.293 692.101 248.812 692.877 249.159C693.664 249.505 694.525 249.678 695.459 249.678C696.656 249.678 697.752 249.379 698.75 248.781C699.757 248.183 700.555 247.259 701.142 246.01C701.741 244.761 702.04 243.223 702.04 241.397ZM731.857 243.617V248.041C731.857 248.629 731.8 249.101 731.684 249.458C731.569 249.804 731.354 250.119 731.039 250.402C730.734 250.686 730.341 250.959 729.858 251.221C728.462 251.977 727.119 252.528 725.828 252.874C724.537 253.22 723.13 253.394 721.609 253.394C719.835 253.394 718.219 253.121 716.76 252.575C715.301 252.029 714.057 251.237 713.029 250.198C712 249.159 711.208 247.899 710.651 246.419C710.106 244.94 709.833 243.286 709.833 241.46C709.833 239.666 710.1 238.023 710.636 236.533C711.171 235.042 711.958 233.778 712.997 232.739C714.036 231.7 715.301 230.907 716.791 230.361C718.282 229.805 719.971 229.527 721.861 229.527C723.414 229.527 724.789 229.737 725.985 230.157C727.182 230.566 728.153 231.086 728.898 231.715C729.643 232.345 730.204 233.011 730.582 233.715C730.96 234.418 731.149 235.042 731.149 235.588C731.149 236.176 730.929 236.68 730.488 237.099C730.057 237.509 729.538 237.713 728.929 237.713C728.593 237.713 728.268 237.635 727.953 237.477C727.649 237.32 727.392 237.099 727.182 236.816C726.604 235.913 726.116 235.231 725.718 234.769C725.319 234.308 724.778 233.919 724.096 233.604C723.424 233.29 722.564 233.132 721.514 233.132C720.433 233.132 719.468 233.321 718.617 233.699C717.767 234.066 717.038 234.607 716.429 235.32C715.831 236.024 715.369 236.89 715.044 237.918C714.729 238.947 714.571 240.085 714.571 241.334C714.571 244.042 715.191 246.125 716.429 247.584C717.678 249.043 719.415 249.773 721.64 249.773C722.721 249.773 723.734 249.631 724.679 249.348C725.634 249.064 726.599 248.66 727.575 248.135V244.388H723.954C723.083 244.388 722.422 244.257 721.971 243.995C721.53 243.733 721.309 243.286 721.309 242.657C721.309 242.142 721.493 241.717 721.861 241.382C722.238 241.046 722.747 240.878 723.388 240.878H728.693C729.344 240.878 729.895 240.935 730.346 241.051C730.797 241.166 731.159 241.424 731.432 241.822C731.716 242.221 731.857 242.819 731.857 243.617ZM741.461 250.544V243.223L735.825 234.486C735.331 233.699 734.98 233.085 734.77 232.644C734.57 232.203 734.471 231.82 734.471 231.495C734.471 230.96 734.675 230.498 735.085 230.109C735.505 229.721 736.019 229.527 736.628 229.527C737.268 229.527 737.751 229.711 738.076 230.078C738.412 230.435 738.91 231.154 739.572 232.235L743.885 239.24L748.246 232.235C748.508 231.804 748.729 231.442 748.907 231.148C749.086 230.855 749.28 230.582 749.49 230.33C749.71 230.067 749.952 229.868 750.214 229.732C750.476 229.595 750.796 229.527 751.174 229.527C751.762 229.527 752.25 229.721 752.638 230.109C753.037 230.487 753.237 230.928 753.237 231.432C753.237 231.841 753.137 232.251 752.938 232.66C752.738 233.069 752.397 233.636 751.914 234.36L746.136 243.223V250.544C746.136 251.499 745.916 252.213 745.475 252.685C745.034 253.157 744.473 253.394 743.791 253.394C743.098 253.394 742.537 253.163 742.106 252.701C741.676 252.229 741.461 251.51 741.461 250.544Z" fill="#181C20"/>
</svg>
