<svg width="30" height="30" viewBox="0 0 30 30" fill="none" xmlns="http://www.w3.org/2000/svg">
<path d="M5 11.3333H25M5 11.3333V22.0891C5 23.4581 5 24.1423 5.27248 24.6652C5.51217 25.1251 5.89434 25.4995 6.36475 25.7338C6.899 26 7.59874 26 8.99614 26H21.0039C22.4013 26 23.1 26 23.6342 25.7338C24.1046 25.4995 24.4881 25.1251 24.7278 24.6652C25 24.1428 25 23.4596 25 22.0933V11.3333M5 11.3333V10.3558C5 8.98678 5 8.30176 5.27248 7.77886C5.51217 7.31891 5.89434 6.94523 6.36475 6.71087C6.89953 6.44444 7.60011 6.44444 9.00024 6.44444H10M25 11.3333V10.3518C25 8.98544 25 8.30125 24.7278 7.77886C24.4881 7.31891 24.1046 6.94523 23.6342 6.71087C23.0995 6.44444 22.4004 6.44444 21.0002 6.44444H20M20 4V6.44444M20 6.44444H10M10 4V6.44444" stroke="#171D1E" stroke-width="2.5" stroke-linecap="round" stroke-linejoin="round"/>
</svg>
