<svg width="47" height="47" viewBox="0 0 47 47" fill="none" xmlns="http://www.w3.org/2000/svg">
<path d="M8.16699 15.4121H38.8337M8.16699 15.4121V32.2792C8.16699 34.426 8.16699 35.4989 8.5848 36.3189C8.95232 37.0402 9.53832 37.6272 10.2596 37.9947C11.0788 38.4121 12.1517 38.4121 14.2944 38.4121H32.7072C34.8499 38.4121 35.9212 38.4121 36.7404 37.9947C37.4617 37.6272 38.0488 37.0402 38.4163 36.3189C38.8337 35.4997 38.8337 34.4283 38.8337 32.2856V15.4121M8.16699 15.4121V13.8792C8.16699 11.7323 8.16699 10.658 8.5848 9.83805C8.95232 9.11677 9.53832 8.53077 10.2596 8.16325C11.0796 7.74544 12.1538 7.74544 14.3007 7.74544H15.8337M38.8337 15.4121V13.8729C38.8337 11.7302 38.8337 10.6572 38.4163 9.83805C38.0488 9.11677 37.4617 8.53077 36.7404 8.16325C35.9204 7.74544 34.8476 7.74544 32.7007 7.74544H31.167M15.8337 7.74544H31.167M15.8337 7.74544V3.91211M31.167 7.74544V3.91211M28.292 26.9121H23.5003M23.5003 26.9121H18.7087M23.5003 26.9121V22.1204M23.5003 26.9121V31.7038" stroke="#2A638B" stroke-width="2.5" stroke-linecap="round" stroke-linejoin="round"/>
</svg>
