<svg width="34" height="35" viewBox="0 0 34 35" fill="none" xmlns="http://www.w3.org/2000/svg">
<circle cx="16.9999" cy="17.5693" r="13.7333" stroke="#181C20" stroke-width="2"/>
<path d="M17.0003 8.50195C14.5956 8.50195 12.2895 9.45719 10.5892 11.1575C8.88883 12.8578 7.93359 15.164 7.93359 17.5686C7.93359 19.9733 8.88883 22.2794 10.5892 23.9797C12.2895 25.6801 14.5956 26.6353 17.0003 26.6353C19.4049 26.6353 21.711 25.6801 23.4114 23.9797C25.1117 22.2794 26.0669 19.9733 26.0669 17.5686C26.0669 15.164 25.1117 12.8578 23.4114 11.1575C21.711 9.45719 19.4049 8.50195 17.0003 8.50195ZM16.5006 10.3325C16.7761 10.3135 17.0003 10.5391 17.0003 10.8153V24.322C17.0003 24.5981 16.7761 24.8238 16.5006 24.8047C14.7595 24.6846 13.1134 23.9395 11.8714 22.6975C10.5111 21.3372 9.74693 19.4923 9.74693 17.5686C9.74693 15.6449 10.5111 13.8 11.8714 12.4397C13.1134 11.1977 14.7595 10.4527 16.5006 10.3325Z" fill="#181C20"/>
</svg>
