<svg width="30" height="30" viewBox="0 0 30 30" fill="none" xmlns="http://www.w3.org/2000/svg">
<path d="M16.5356 3.75106C16.4128 3.75 16.2749 3.75 16.1174 3.75H10.3645C8.92436 3.75 8.20377 3.75 7.65372 4.01643C7.16988 4.25079 6.77679 4.62447 6.53026 5.08442C6.25 5.60731 6.25 6.29233 6.25 7.66135V21.8391C6.25 23.2081 6.25 23.8923 6.53027 24.4152C6.77679 24.8751 7.16988 25.2495 7.65372 25.4838C8.20324 25.75 8.92297 25.75 10.3603 25.75L20.1395 25.75C21.5768 25.75 22.2955 25.75 22.845 25.4838C23.3288 25.2495 23.7232 24.8751 23.9698 24.4152C24.2497 23.8928 24.2497 23.2096 24.2497 21.8433V11.4814C24.2497 11.3314 24.2497 11.2002 24.2485 11.0833M16.5356 3.75106C16.9028 3.75424 17.1351 3.76692 17.3569 3.81754C17.6193 3.87742 17.8699 3.97643 18.1 4.11046C18.3594 4.26158 18.5822 4.47333 19.0266 4.89583L23.045 8.71587C23.4898 9.13864 23.7109 9.34944 23.8699 9.59612C24.0109 9.81483 24.1152 10.0533 24.1782 10.3027C24.2314 10.5135 24.2451 10.7344 24.2485 11.0833M16.5356 3.75106V7.17222C16.5356 8.54124 16.5356 9.22527 16.8158 9.74817C17.0624 10.2081 17.4555 10.5828 17.9393 10.8172C18.4888 11.0833 19.2085 11.0833 20.6458 11.0833H24.2485M24.2485 11.0833H24.25" stroke="#171D1E" stroke-width="2.5" stroke-linecap="round" stroke-linejoin="round"/>
</svg>
