<svg width="34" height="34" viewBox="0 0 34 34" fill="none" xmlns="http://www.w3.org/2000/svg">
<path d="M4.25 17H11.3333M4.25 17C4.25 24.0416 9.95837 29.75 17 29.75M4.25 17C4.25 9.95837 9.95837 4.25 17 4.25M11.3333 17H22.6667M11.3333 17C11.3333 24.0416 13.8704 29.75 17 29.75M11.3333 17C11.3333 9.95837 13.8704 4.25 17 4.25M22.6667 17H29.75M22.6667 17C22.6667 9.95837 20.1296 4.25 17 4.25M22.6667 17C22.6667 24.0416 20.1296 29.75 17 29.75M29.75 17C29.75 9.95837 24.0416 4.25 17 4.25M29.75 17C29.75 24.0416 24.0416 29.75 17 29.75" stroke="#181C20" stroke-width="2.5" stroke-linecap="round" stroke-linejoin="round"/>
</svg>
