<svg width="32" height="32" viewBox="0 0 32 32" fill="none" xmlns="http://www.w3.org/2000/svg">
<path d="M12.2698 31.9997L12.2406 27.8739L10.4882 24.3806L7.9707 21.7923C8.1057 21.679 8.49736 21.1382 8.65153 21.2173L11.209 23.7831C11.3915 24.4248 13.2048 27.3297 13.2048 27.7189V31.0614H14.8264V29.1872H15.7622V31.0614H21.3763V26.3756H15.7622V28.2497H14.8264V26.0939L10.529 21.7707C10.4965 21.6473 10.934 21.204 11.0507 21.1232C11.1057 21.0848 11.1348 21.034 11.2082 21.0923L15.4781 25.3798L16.3856 25.4381L12.7673 19.4715V11.6925L13.6006 11.7008L13.7031 11.8483L13.7506 19.2357L17.4139 25.3764L18.0064 25.4081L16.5106 19.534V9.88086H17.4464V19.409L18.943 25.4381H22.3113V31.0614H23.9954V29.1872H24.9313V31.9988H12.2698V31.9997Z" fill="#181C20"/>
<path d="M17.3219 0.0104651C18.4077 0.151296 19.2786 1.25795 19.3186 2.32209C20.3352 1.62627 21.7094 1.76044 22.4977 2.72959C22.756 3.04792 23.0602 3.69541 23.0602 4.1029V5.13372C24.736 4.05123 26.6509 5.07788 26.8018 7.04035L26.7984 20.8435L24.931 24.5959V28.2508H23.9952V24.7209L21.4952 20.166L22.3052 19.7576L24.3701 23.5651L25.8368 20.7551L25.8585 6.98452C25.6885 5.40621 23.6835 5.12288 23.1077 6.58786L23.0593 14.4119L22.9568 14.5594L22.1235 14.5677V4.1029C22.1235 2.98042 20.4252 2.34293 19.6377 3.30041C19.5869 3.36208 19.3161 3.82124 19.3161 3.8529V7.50784H18.3802V2.22793C18.3802 1.9871 18.0986 1.48877 17.9153 1.31878C17.1203 0.581289 15.892 0.980449 15.5878 1.9921L15.5736 14.4119L15.4711 14.5594L14.6378 14.5677V4.1029C14.6378 2.98042 12.9395 2.34293 12.152 3.30041C12.1012 3.36208 11.8303 3.82124 11.8303 3.8529V7.50784H10.8945V3.7904C10.8945 3.68457 11.1054 3.19458 11.1729 3.06958C11.7087 2.0821 12.9287 1.65961 13.9853 2.00627C14.2228 2.0846 14.4061 2.24876 14.637 2.32126C14.6061 1.14545 15.477 0.272961 16.5711 0.00963181C16.8094 0.0312981 17.0886 -0.0203677 17.3194 0.00963181L17.3219 0.0104651Z" fill="#181C20"/>
<path d="M11.8331 8.44615V20.3801L7.28069 15.8494C5.85738 14.7169 4.18824 16.4802 5.28572 17.8477L7.87651 20.4426C7.92984 20.546 7.44068 21.0509 7.34235 21.1018C7.26902 21.1393 7.23902 21.1318 7.18485 21.0709C6.4232 20.1635 5.29489 19.351 4.56656 18.4435C3.19992 16.7427 4.4699 14.3561 6.62486 14.5694C8.07151 14.7127 9.56232 17.0935 10.7106 17.9743C10.7731 18.0227 10.789 18.0952 10.8981 18.0677V8.44531H11.8339L11.8331 8.44615Z" fill="#181C20"/>
<path d="M19.3186 8.44531V14.4744L21.8128 18.911L21.0328 19.3751L18.3828 14.7244V8.44531H19.3186Z" fill="#181C20"/>
<path d="M20.4417 27.3145V30.1261H16.6992V27.3145H20.4417ZM19.5058 28.2511H17.6342V29.1886H19.5058V28.2511Z" fill="#181C20"/>
<path d="M16.5117 7.06943V4.19531L17.42 4.25364L17.4384 6.96693C17.3734 7.1661 16.7017 7.0311 16.5117 7.06943Z" fill="#181C20"/>
<path d="M12.7686 8.94429V6.07017C12.9586 6.1085 13.6302 5.97351 13.6952 6.17267L13.6769 8.88596L12.7686 8.94429Z" fill="#181C20"/>
<path d="M24.9329 17.0664H23.9971V19.878H24.9329V17.0664Z" fill="#181C20"/>
<path d="M7.81794 17.7598L9.14958 19.0364L8.4871 19.6881C8.40043 19.7039 7.24628 18.5473 7.22378 18.4614C7.17628 18.2806 7.69211 17.9056 7.81794 17.7598Z" fill="#181C20"/>
<path d="M16.5117 3.3203V2.32031L17.42 2.37864C17.4492 2.54698 17.5 3.2153 17.3892 3.2928L16.5117 3.3203Z" fill="#181C20"/>
<path d="M12.7686 5.1953V4.19531L13.6769 4.25364C13.706 4.42198 13.7569 5.0903 13.646 5.1678L12.7686 5.1953Z" fill="#181C20"/>
<path d="M16.5117 8.9453V7.94531L17.3892 7.97281C17.5 8.05031 17.45 8.71863 17.42 8.88696L16.5117 8.9453Z" fill="#181C20"/>
<path d="M12.7686 10.8203V9.82031L13.6769 9.87864C13.706 10.047 13.7569 10.7153 13.646 10.7928L12.7686 10.8203Z" fill="#181C20"/>
<path d="M6.50834 16.4473L7.15083 17.0906L6.5 17.6947L5.84668 17.0989L6.50834 16.4473Z" fill="#181C20"/>
<path d="M9.81483 19.7578L10.4565 20.4003L9.80567 21.0053L9.15234 20.4095L9.81483 19.7578Z" fill="#181C20"/>
<path d="M24.9329 15.1934H23.9971V16.1308H24.9329V15.1934Z" fill="#181C20"/>
<path d="M21.3772 23.5644C21.0664 23.5586 20.7522 23.5686 20.4414 23.5644V22.627H21.3772C21.3814 22.9386 21.3714 23.2528 21.3772 23.5644C21.6881 23.5703 22.0022 23.5603 22.313 23.5644V24.5019H21.3772C21.3731 24.1903 21.3831 23.8761 21.3772 23.5644Z" fill="#181C20"/>
</svg>
