<svg width="32" height="32" viewBox="0 0 32 32" fill="none" xmlns="http://www.w3.org/2000/svg">
<path d="M14.2031 15.3333C14.1161 15.3333 14.0326 15.2982 13.9711 15.2357C13.9096 15.1732 13.875 15.0884 13.875 15V4.33333C13.875 3.414 13.1393 2.66667 12.2344 2.66667C11.3294 2.66667 10.5937 3.414 10.5937 4.33333V15C10.5937 15.0884 10.5592 15.1732 10.4976 15.2357C10.4361 15.2982 10.3526 15.3333 10.2656 15.3333C10.1786 15.3333 10.0951 15.2982 10.0336 15.2357C9.97207 15.1732 9.9375 15.0884 9.9375 15V4.33333C9.9375 3.04666 10.9678 2 12.2344 2C13.5009 2 14.5312 3.04666 14.5312 4.33333V15C14.5312 15.1846 14.3849 15.3333 14.2031 15.3333Z" fill="#181C20"/>
<path d="M10.2656 17.3327C10.1786 17.3327 10.0951 17.2975 10.0336 17.235C9.97207 17.1725 9.9375 17.0877 9.9375 16.9993V11.666C9.9375 10.3793 8.90719 9.33268 7.64062 9.33268H7.11563C6.99379 9.33268 6.87695 9.38185 6.7908 9.46936C6.70465 9.55688 6.65625 9.67558 6.65625 9.79935V15.666C6.65625 15.7544 6.62168 15.8392 6.56014 15.9017C6.49861 15.9642 6.41515 15.9993 6.32812 15.9993C6.2411 15.9993 6.15764 15.9642 6.09611 15.9017C6.03457 15.8392 6 15.7544 6 15.666V9.79935C6 9.17401 6.50072 8.66602 7.11563 8.66602H7.64062C9.26878 8.66602 10.5937 10.012 10.5937 11.666V16.9993C10.5937 17.184 10.4474 17.3327 10.2656 17.3327Z" fill="#181C20"/>
<path d="M23.7188 27.3326H11.1581C10.8347 27.3323 10.5246 27.2016 10.2959 26.9693C10.0672 26.7369 9.93851 26.4219 9.93816 26.0933C9.93857 25.7091 9.84536 25.3307 9.66685 24.992C9.48833 24.6533 9.23006 24.3647 8.91507 24.152L7.31513 23.0686C6.91008 22.7953 6.57798 22.4243 6.3485 21.9887C6.11901 21.5532 5.99928 21.0667 6 20.5727V12.2C6 12.1116 6.03457 12.0268 6.09611 11.9643C6.15764 11.9018 6.2411 11.8667 6.32813 11.8667C6.41515 11.8667 6.49861 11.9018 6.56015 11.9643C6.62168 12.0268 6.65625 12.1116 6.65625 12.2V20.5727C6.65572 20.9569 6.74888 21.3353 6.92741 21.6741C7.10594 22.0128 7.36427 22.3014 7.67935 22.514L9.27928 23.5973C9.68421 23.8708 10.0162 24.2419 10.2457 24.6774C10.4751 25.1129 10.595 25.5993 10.5944 26.0933C10.5946 26.2451 10.654 26.3907 10.7597 26.498C10.8654 26.6054 11.0087 26.6658 11.1581 26.666H23.7188C23.8928 26.666 24.0597 26.5957 24.1828 26.4707C24.3059 26.3457 24.375 26.1761 24.375 25.9993V24.7866C24.375 24.22 24.5069 23.6526 24.7563 23.1466L25.3758 21.8873C25.5803 21.4707 25.687 21.0116 25.6875 20.546V8.99935C25.6875 8.91094 25.7221 8.82616 25.7836 8.76365C25.8451 8.70113 25.9286 8.66602 26.0156 8.66602C26.1026 8.66602 26.1861 8.70113 26.2476 8.76365C26.3092 8.82616 26.3438 8.91094 26.3438 8.99935V20.546C26.3438 21.112 26.2125 21.6787 25.9631 22.1853L25.3436 23.4446C25.1384 23.8613 25.0315 24.3208 25.0312 24.7866V25.9993C25.0312 26.7346 24.4426 27.3326 23.7188 27.3326Z" fill="#181C20"/>
<path d="M18.1406 13.3333C18.0536 13.3333 17.9701 13.2982 17.9086 13.2357C17.8471 13.1732 17.8125 13.0884 17.8125 13V2.33333C17.8125 1.414 17.0768 0.666665 16.1719 0.666665C15.2669 0.666665 14.5312 1.414 14.5312 2.33333V13C14.5312 13.0884 14.4967 13.1732 14.4351 13.2357C14.3736 13.2982 14.2901 13.3333 14.2031 13.3333C14.1161 13.3333 14.0326 13.2982 13.9711 13.2357C13.9096 13.1732 13.875 13.0884 13.875 13V2.33333C13.875 1.04666 14.9053 0 16.1719 0C17.4384 0 18.4687 1.04666 18.4687 2.33333V13C18.4687 13.1846 18.3224 13.3333 18.1406 13.3333Z" fill="#181C20"/>
<path d="M22.0781 15.3333C21.9911 15.3333 21.9076 15.2982 21.8461 15.2357C21.7846 15.1732 21.75 15.0884 21.75 15V4.33333C21.75 3.414 21.0143 2.66667 20.1094 2.66667C19.2044 2.66667 18.4687 3.414 18.4687 4.33333V15C18.4687 15.0884 18.4342 15.1732 18.3726 15.2357C18.3111 15.2982 18.2276 15.3333 18.1406 15.3333C18.0536 15.3333 17.9701 15.2982 17.9086 15.2357C17.8471 15.1732 17.8125 15.0884 17.8125 15V4.33333C17.8125 3.04666 18.8428 2 20.1094 2C21.3759 2 22.4062 3.04666 22.4062 4.33333V15C22.4062 15.1846 22.2599 15.3333 22.0781 15.3333Z" fill="#181C20"/>
<path d="M26.0156 15.334C25.9286 15.334 25.8451 15.2988 25.7836 15.2363C25.7221 15.1738 25.6875 15.089 25.6875 15.0006V7.66731C25.6875 6.74798 24.9518 6.00065 24.0469 6.00065C23.1419 6.00065 22.4062 6.74798 22.4062 7.66731V15.0006C22.4062 15.089 22.3717 15.1738 22.3101 15.2363C22.2486 15.2988 22.1651 15.334 22.0781 15.334C21.9911 15.334 21.9076 15.2988 21.8461 15.2363C21.7846 15.1738 21.75 15.089 21.75 15.0006V7.66731C21.75 6.38065 22.7803 5.33398 24.0469 5.33398C25.3134 5.33398 26.3437 6.38065 26.3437 7.66731V15.0006C26.3437 15.1853 26.1974 15.334 26.0156 15.334ZM23.3906 32.0006H11.5781C11.0354 32.0006 10.5937 31.5519 10.5937 31.0006V27.0006C10.5937 26.9122 10.6283 26.8274 10.6899 26.7649C10.7514 26.7024 10.8349 26.6673 10.9219 26.6673H24.0469C24.1339 26.6673 24.2174 26.7024 24.2789 26.7649C24.3404 26.8274 24.375 26.9122 24.375 27.0006V31.0006C24.375 31.5519 23.934 32.0006 23.3906 32.0006ZM11.25 27.3339V31.0006C11.25 31.1839 11.3977 31.3339 11.5781 31.3339H23.3906C23.5711 31.3339 23.7187 31.1839 23.7187 31.0006V27.3339H11.25ZM21.4219 22.0006H18.7969C18.7098 22.0006 18.6264 21.9655 18.5649 21.903C18.5033 21.8405 18.4687 21.7557 18.4687 21.6673C18.4687 21.5789 18.5033 21.4941 18.5649 21.4316C18.6264 21.3691 18.7098 21.3339 18.7969 21.3339H21.4219C21.5089 21.3339 21.5924 21.3691 21.6539 21.4316C21.7154 21.4941 21.75 21.5789 21.75 21.6673C21.75 21.7557 21.7154 21.8405 21.6539 21.903C21.5924 21.9655 21.5089 22.0006 21.4219 22.0006ZM17.4844 22.0006H14.8594C14.7723 22.0006 14.6889 21.9655 14.6274 21.903C14.5658 21.8405 14.5312 21.7557 14.5312 21.6673C14.5312 21.5789 14.5658 21.4941 14.6274 21.4316C14.6889 21.3691 14.7723 21.3339 14.8594 21.3339H17.4844C17.5714 21.3339 17.6549 21.3691 17.7164 21.4316C17.7779 21.4941 17.8125 21.5789 17.8125 21.6673C17.8125 21.7557 17.7779 21.8405 17.7164 21.903C17.6549 21.9655 17.5714 22.0006 17.4844 22.0006ZM8.29687 18.0006C8.20985 18.0006 8.12639 17.9655 8.06486 17.903C8.00332 17.8405 7.96875 17.7557 7.96875 17.6673V15.6673C7.96875 15.5789 8.00332 15.4941 8.06486 15.4316C8.12639 15.3691 8.20985 15.334 8.29687 15.334C8.3839 15.334 8.46736 15.3691 8.52889 15.4316C8.59043 15.4941 8.625 15.5789 8.625 15.6673V17.6673C8.625 17.852 8.47866 18.0006 8.29687 18.0006Z" fill="#181C20"/>
<path d="M14.2031 27.3339C14.1161 27.3339 14.0326 27.2988 13.9711 27.2363C13.9096 27.1738 13.875 27.089 13.875 27.0006V22.3339C13.875 22.2455 13.9096 22.1608 13.9711 22.0982C14.0326 22.0357 14.1161 22.0006 14.2031 22.0006C14.2901 22.0006 14.3736 22.0357 14.4351 22.0982C14.4967 22.1608 14.5312 22.2455 14.5312 22.3339V27.0006C14.5312 27.1853 14.3849 27.3339 14.2031 27.3339ZM18.1406 27.3339C18.0536 27.3339 17.9701 27.2988 17.9086 27.2363C17.8471 27.1738 17.8125 27.089 17.8125 27.0006V22.3339C17.8125 22.2455 17.8471 22.1608 17.9086 22.0982C17.9701 22.0357 18.0536 22.0006 18.1406 22.0006C18.2276 22.0006 18.3111 22.0357 18.3726 22.0982C18.4342 22.1608 18.4687 22.2455 18.4687 22.3339V27.0006C18.4687 27.1853 18.3224 27.3339 18.1406 27.3339ZM22.0781 27.3339C21.9911 27.3339 21.9076 27.2988 21.8461 27.2363C21.7846 27.1738 21.75 27.089 21.75 27.0006V22.3339C21.75 22.2455 21.7846 22.1608 21.8461 22.0982C21.9076 22.0357 21.9911 22.0006 22.0781 22.0006C22.1651 22.0006 22.2486 22.0357 22.3101 22.0982C22.3717 22.1608 22.4062 22.2455 22.4062 22.3339V27.0006C22.4062 27.1853 22.2599 27.3339 22.0781 27.3339ZM8.29687 14.6673C8.20985 14.6673 8.12639 14.6322 8.06486 14.5697C8.00332 14.5071 7.96875 14.4224 7.96875 14.334V12.334C7.96875 12.2456 8.00332 12.1608 8.06486 12.0983C8.12639 12.0358 8.20985 12.0006 8.29687 12.0006C8.3839 12.0006 8.46736 12.0358 8.52889 12.0983C8.59043 12.1608 8.625 12.2456 8.625 12.334V14.334C8.625 14.5186 8.47866 14.6673 8.29687 14.6673ZM12.2344 14.6673C12.1473 14.6673 12.0639 14.6322 12.0024 14.5697C11.9408 14.5071 11.9062 14.4224 11.9062 14.334V12.334C11.9062 12.2456 11.9408 12.1608 12.0024 12.0983C12.0639 12.0358 12.1473 12.0006 12.2344 12.0006C12.3214 12.0006 12.4049 12.0358 12.4664 12.0983C12.5279 12.1608 12.5625 12.2456 12.5625 12.334V14.334C12.5625 14.5186 12.4162 14.6673 12.2344 14.6673ZM12.2344 11.334C12.1473 11.334 12.0639 11.2988 12.0024 11.2363C11.9408 11.1738 11.9062 11.089 11.9062 11.0006V9.00064C11.9062 8.91223 11.9408 8.82745 12.0024 8.76494C12.0639 8.70242 12.1473 8.66731 12.2344 8.66731C12.3214 8.66731 12.4049 8.70242 12.4664 8.76494C12.5279 8.82745 12.5625 8.91223 12.5625 9.00064V11.0006C12.5625 11.1853 12.4162 11.334 12.2344 11.334ZM16.1719 12.6673C16.0848 12.6673 16.0014 12.6322 15.9399 12.5697C15.8783 12.5072 15.8437 12.4224 15.8437 12.334V10.334C15.8437 10.2456 15.8783 10.1608 15.9399 10.0983C16.0014 10.0358 16.0848 10.0006 16.1719 10.0006C16.2589 10.0006 16.3424 10.0358 16.4039 10.0983C16.4654 10.1608 16.5 10.2456 16.5 10.334V12.334C16.5 12.5186 16.3537 12.6673 16.1719 12.6673ZM16.1719 9.33397C16.0848 9.33397 16.0014 9.29885 15.9399 9.23634C15.8783 9.17383 15.8437 9.08904 15.8437 9.00064V7.00064C15.8437 6.91224 15.8783 6.82745 15.9399 6.76494C16.0014 6.70243 16.0848 6.66731 16.1719 6.66731C16.2589 6.66731 16.3424 6.70243 16.4039 6.76494C16.4654 6.82745 16.5 6.91224 16.5 7.00064V9.00064C16.5 9.1853 16.3537 9.33397 16.1719 9.33397ZM20.1094 8.00064C20.0223 8.00064 19.9389 7.96552 19.8774 7.90301C19.8158 7.8405 19.7812 7.75571 19.7812 7.66731V5.66731C19.7812 5.57891 19.8158 5.49412 19.8774 5.43161C19.9389 5.3691 20.0223 5.33398 20.1094 5.33398C20.1964 5.33398 20.2799 5.3691 20.3414 5.43161C20.4029 5.49412 20.4375 5.57891 20.4375 5.66731V7.66731C20.4375 7.85197 20.2912 8.00064 20.1094 8.00064ZM16.1719 6.00065C16.0848 6.00065 16.0014 5.96553 15.9399 5.90301C15.8783 5.8405 15.8437 5.75572 15.8437 5.66731V3.66732C15.8437 3.57891 15.8783 3.49413 15.9399 3.43161C16.0014 3.3691 16.0848 3.33398 16.1719 3.33398C16.2589 3.33398 16.3424 3.3691 16.4039 3.43161C16.4654 3.49413 16.5 3.57891 16.5 3.66732V5.66731C16.5 5.85198 16.3537 6.00065 16.1719 6.00065ZM12.2344 8.00064C12.1473 8.00064 12.0639 7.96552 12.0024 7.90301C11.9408 7.8405 11.9062 7.75571 11.9062 7.66731V5.66731C11.9062 5.57891 11.9408 5.49412 12.0024 5.43161C12.0639 5.3691 12.1473 5.33398 12.2344 5.33398C12.3214 5.33398 12.4049 5.3691 12.4664 5.43161C12.5279 5.49412 12.5625 5.57891 12.5625 5.66731V7.66731C12.5625 7.85197 12.4162 8.00064 12.2344 8.00064ZM20.1094 11.334C20.0223 11.334 19.9389 11.2988 19.8774 11.2363C19.8158 11.1738 19.7812 11.089 19.7812 11.0006V9.00064C19.7812 8.91223 19.8158 8.82745 19.8774 8.76494C19.9389 8.70242 20.0223 8.66731 20.1094 8.66731C20.1964 8.66731 20.2799 8.70242 20.3414 8.76494C20.4029 8.82745 20.4375 8.91223 20.4375 9.00064V11.0006C20.4375 11.1853 20.2912 11.334 20.1094 11.334ZM20.1094 14.6673C20.0223 14.6673 19.9389 14.6322 19.8774 14.5697C19.8158 14.5071 19.7812 14.4224 19.7812 14.334V12.334C19.7812 12.2456 19.8158 12.1608 19.8774 12.0983C19.9389 12.0358 20.0223 12.0006 20.1094 12.0006C20.1964 12.0006 20.2799 12.0358 20.3414 12.0983C20.4029 12.1608 20.4375 12.2456 20.4375 12.334V14.334C20.4375 14.5186 20.2912 14.6673 20.1094 14.6673ZM24.0469 14.6673C23.9598 14.6673 23.8764 14.6322 23.8149 14.5697C23.7533 14.5071 23.7187 14.4224 23.7187 14.334V12.334C23.7187 12.2456 23.7533 12.1608 23.8149 12.0983C23.8764 12.0358 23.9598 12.0006 24.0469 12.0006C24.1339 12.0006 24.2174 12.0358 24.2789 12.0983C24.3404 12.1608 24.375 12.2456 24.375 12.334V14.334C24.375 14.5186 24.2287 14.6673 24.0469 14.6673ZM24.0469 11.334C23.9598 11.334 23.8764 11.2988 23.8149 11.2363C23.7533 11.1738 23.7187 11.089 23.7187 11.0006V9.00064C23.7187 8.91223 23.7533 8.82745 23.8149 8.76494C23.8764 8.70242 23.9598 8.66731 24.0469 8.66731C24.1339 8.66731 24.2174 8.70242 24.2789 8.76494C24.3404 8.82745 24.375 8.91223 24.375 9.00064V11.0006C24.375 11.1853 24.2287 11.334 24.0469 11.334Z" fill="#181C20"/>
<path d="M8.95312 12.6666H7.64062C7.5536 12.6666 7.47014 12.6315 7.40861 12.569C7.34707 12.5065 7.3125 12.4217 7.3125 12.3333V11C7.3125 10.9116 7.34707 10.8268 7.40861 10.7643C7.47014 10.7018 7.5536 10.6666 7.64062 10.6666H8.95312C9.04015 10.6666 9.12361 10.7018 9.18514 10.7643C9.24668 10.8268 9.28125 10.9116 9.28125 11V12.3333C9.28125 12.518 9.13491 12.6666 8.95312 12.6666ZM7.96875 12H8.625V11.3333H7.96875V12ZM12.8906 5.99999H11.5781C11.4911 5.99999 11.4076 5.96487 11.3461 5.90236C11.2846 5.83985 11.25 5.75506 11.25 5.66666V4.33333C11.25 4.24492 11.2846 4.16014 11.3461 4.09763C11.4076 4.03511 11.4911 4 11.5781 4H12.8906C12.9776 4 13.0611 4.03511 13.1226 4.09763C13.1842 4.16014 13.2187 4.24492 13.2187 4.33333V5.66666C13.2187 5.85132 13.0724 5.99999 12.8906 5.99999ZM11.9062 5.33333H12.5625V4.66666H11.9062V5.33333ZM16.8281 4H15.5156C15.4286 4 15.3451 3.96488 15.2836 3.90236C15.2221 3.83985 15.1875 3.75507 15.1875 3.66666V2.33333C15.1875 2.24493 15.2221 2.16014 15.2836 2.09763C15.3451 2.03512 15.4286 2 15.5156 2H16.8281C16.9151 2 16.9986 2.03512 17.0601 2.09763C17.1217 2.16014 17.1562 2.24493 17.1562 2.33333V3.66666C17.1562 3.85133 17.0099 4 16.8281 4ZM15.8437 3.33333H16.5V2.66667H15.8437V3.33333ZM20.7656 5.99999H19.4531C19.3661 5.99999 19.2826 5.96487 19.2211 5.90236C19.1596 5.83985 19.125 5.75506 19.125 5.66666V4.33333C19.125 4.24492 19.1596 4.16014 19.2211 4.09763C19.2826 4.03511 19.3661 4 19.4531 4H20.7656C20.8526 4 20.9361 4.03511 20.9976 4.09763C21.0592 4.16014 21.0937 4.24492 21.0937 4.33333V5.66666C21.0937 5.85132 20.9474 5.99999 20.7656 5.99999ZM19.7812 5.33333H20.4375V4.66666H19.7812V5.33333ZM24.7031 9.33332H23.3906C23.3036 9.33332 23.2201 9.2982 23.1586 9.23569C23.0971 9.17317 23.0625 9.08839 23.0625 8.99998V7.66665C23.0625 7.57825 23.0971 7.49346 23.1586 7.43095C23.2201 7.36844 23.3036 7.33332 23.3906 7.33332H24.7031C24.7901 7.33332 24.8736 7.36844 24.9351 7.43095C24.9967 7.49346 25.0312 7.57825 25.0312 7.66665V8.99998C25.0312 9.18465 24.8849 9.33332 24.7031 9.33332ZM23.7187 8.66665H24.375V7.99999H23.7187V8.66665ZM24.7031 12.6666H23.3906C23.3036 12.6666 23.2201 12.6315 23.1586 12.569C23.0971 12.5065 23.0625 12.4217 23.0625 12.3333V11C23.0625 10.9116 23.0971 10.8268 23.1586 10.7643C23.2201 10.7018 23.3036 10.6666 23.3906 10.6666H24.7031C24.7901 10.6666 24.8736 10.7018 24.9351 10.7643C24.9967 10.8268 25.0312 10.9116 25.0312 11V12.3333C25.0312 12.518 24.8849 12.6666 24.7031 12.6666ZM23.7187 12H24.375V11.3333H23.7187V12ZM20.7656 9.33332H19.4531C19.3661 9.33332 19.2826 9.2982 19.2211 9.23569C19.1596 9.17317 19.125 9.08839 19.125 8.99998V7.66665C19.125 7.57825 19.1596 7.49346 19.2211 7.43095C19.2826 7.36844 19.3661 7.33332 19.4531 7.33332H20.7656C20.8526 7.33332 20.9361 7.36844 20.9976 7.43095C21.0592 7.49346 21.0937 7.57825 21.0937 7.66665V8.99998C21.0937 9.18465 20.9474 9.33332 20.7656 9.33332ZM19.7812 8.66665H20.4375V7.99999H19.7812V8.66665ZM16.8281 7.33332H15.5156C15.4286 7.33332 15.3451 7.2982 15.2836 7.23569C15.2221 7.17318 15.1875 7.08839 15.1875 6.99999V5.66666C15.1875 5.57825 15.2221 5.49347 15.2836 5.43096C15.3451 5.36844 15.4286 5.33333 15.5156 5.33333H16.8281C16.9151 5.33333 16.9986 5.36844 17.0601 5.43096C17.1217 5.49347 17.1562 5.57825 17.1562 5.66666V6.99999C17.1562 7.18466 17.0099 7.33332 16.8281 7.33332ZM15.8437 6.66666H16.5V5.99999H15.8437V6.66666ZM16.8281 10.6666H15.5156C15.4286 10.6666 15.3451 10.6315 15.2836 10.569C15.2221 10.5065 15.1875 10.4217 15.1875 10.3333V8.99998C15.1875 8.91158 15.2221 8.82679 15.2836 8.76428C15.3451 8.70177 15.4286 8.66665 15.5156 8.66665H16.8281C16.9151 8.66665 16.9986 8.70177 17.0601 8.76428C17.1217 8.82679 17.1562 8.91158 17.1562 8.99998V10.3333C17.1562 10.518 17.0099 10.6666 16.8281 10.6666ZM15.8437 9.99998H16.5V9.33332H15.8437V9.99998ZM12.8906 9.33332H11.5781C11.4911 9.33332 11.4076 9.2982 11.3461 9.23569C11.2846 9.17317 11.25 9.08839 11.25 8.99998V7.66665C11.25 7.57825 11.2846 7.49346 11.3461 7.43095C11.4076 7.36844 11.4911 7.33332 11.5781 7.33332H12.8906C12.9776 7.33332 13.0611 7.36844 13.1226 7.43095C13.1842 7.49346 13.2187 7.57825 13.2187 7.66665V8.99998C13.2187 9.18465 13.0724 9.33332 12.8906 9.33332ZM11.9062 8.66665H12.5625V7.99999H11.9062V8.66665ZM12.8906 12.6666H11.5781C11.4911 12.6666 11.4076 12.6315 11.3461 12.569C11.2846 12.5065 11.25 12.4217 11.25 12.3333V11C11.25 10.9116 11.2846 10.8268 11.3461 10.7643C11.4076 10.7018 11.4911 10.6666 11.5781 10.6666H12.8906C12.9776 10.6666 13.0611 10.7018 13.1226 10.7643C13.1842 10.8268 13.2187 10.9116 13.2187 11V12.3333C13.2187 12.518 13.0724 12.6666 12.8906 12.6666ZM11.9062 12H12.5625V11.3333H11.9062V12ZM16.8281 14H15.5156C15.4286 14 15.3451 13.9649 15.2836 13.9023C15.2221 13.8398 15.1875 13.755 15.1875 13.6666V12.3333C15.1875 12.2449 15.2221 12.1601 15.2836 12.0976C15.3451 12.0351 15.4286 12 15.5156 12H16.8281C16.9151 12 16.9986 12.0351 17.0601 12.0976C17.1217 12.1601 17.1562 12.2449 17.1562 12.3333V13.6666C17.1562 13.8513 17.0099 14 16.8281 14ZM15.8437 13.3333H16.5V12.6666H15.8437V13.3333ZM14.8594 22.6666H13.5469C13.4598 22.6666 13.3764 22.6315 13.3149 22.569C13.2533 22.5065 13.2187 22.4217 13.2187 22.3333V21C13.2187 20.9116 13.2533 20.8268 13.3149 20.7643C13.3764 20.7017 13.4598 20.6666 13.5469 20.6666H14.8594C14.9464 20.6666 15.0299 20.7017 15.0914 20.7643C15.1529 20.8268 15.1875 20.9116 15.1875 21V22.3333C15.1875 22.518 15.0412 22.6666 14.8594 22.6666ZM13.875 22H14.5312V21.3333H13.875V22ZM22.7344 22.6666H21.4219C21.3348 22.6666 21.2514 22.6315 21.1899 22.569C21.1283 22.5065 21.0937 22.4217 21.0937 22.3333V21C21.0937 20.9116 21.1283 20.8268 21.1899 20.7643C21.2514 20.7017 21.3348 20.6666 21.4219 20.6666H22.7344C22.8214 20.6666 22.9049 20.7017 22.9664 20.7643C23.0279 20.8268 23.0625 20.9116 23.0625 21V22.3333C23.0625 22.518 22.9162 22.6666 22.7344 22.6666ZM21.75 22H22.4062V21.3333H21.75V22ZM18.7969 22.6666H17.4844C17.3973 22.6666 17.3139 22.6315 17.2524 22.569C17.1908 22.5065 17.1562 22.4217 17.1562 22.3333V21C17.1562 20.9116 17.1908 20.8268 17.2524 20.7643C17.3139 20.7017 17.3973 20.6666 17.4844 20.6666H18.7969C18.8839 20.6666 18.9674 20.7017 19.0289 20.7643C19.0904 20.8268 19.125 20.9116 19.125 21V22.3333C19.125 22.518 18.9787 22.6666 18.7969 22.6666ZM17.8125 22H18.4687V21.3333H17.8125V22ZM20.7656 12.6666H19.4531C19.3661 12.6666 19.2826 12.6315 19.2211 12.569C19.1596 12.5065 19.125 12.4217 19.125 12.3333V11C19.125 10.9116 19.1596 10.8268 19.2211 10.7643C19.2826 10.7018 19.3661 10.6666 19.4531 10.6666H20.7656C20.8526 10.6666 20.9361 10.7018 20.9976 10.7643C21.0592 10.8268 21.0937 10.9116 21.0937 11V12.3333C21.0937 12.518 20.9474 12.6666 20.7656 12.6666ZM19.7812 12H20.4375V11.3333H19.7812V12ZM20.7656 16H19.4531C19.3661 16 19.2826 15.9649 19.2211 15.9023C19.1596 15.8398 19.125 15.755 19.125 15.6666V14.3333C19.125 14.2449 19.1596 14.1601 19.2211 14.0976C19.2826 14.0351 19.3661 14 19.4531 14H20.7656C20.8526 14 20.9361 14.0351 20.9976 14.0976C21.0592 14.1601 21.0937 14.2449 21.0937 14.3333V15.6666C21.0937 15.8513 20.9474 16 20.7656 16ZM19.7812 15.3333H20.4375V14.6666H19.7812V15.3333ZM24.7031 16H23.3906C23.3036 16 23.2201 15.9649 23.1586 15.9023C23.0971 15.8398 23.0625 15.755 23.0625 15.6666V14.3333C23.0625 14.2449 23.0971 14.1601 23.1586 14.0976C23.2201 14.0351 23.3036 14 23.3906 14H24.7031C24.7901 14 24.8736 14.0351 24.9351 14.0976C24.9967 14.1601 25.0312 14.2449 25.0312 14.3333V15.6666C25.0312 15.8513 24.8849 16 24.7031 16ZM23.7187 15.3333H24.375V14.6666H23.7187V15.3333ZM12.8906 16H11.5781C11.4911 16 11.4076 15.9649 11.3461 15.9023C11.2846 15.8398 11.25 15.755 11.25 15.6666V14.3333C11.25 14.2449 11.2846 14.1601 11.3461 14.0976C11.4076 14.0351 11.4911 14 11.5781 14H12.8906C12.9776 14 13.0611 14.0351 13.1226 14.0976C13.1842 14.1601 13.2187 14.2449 13.2187 14.3333V15.6666C13.2187 15.8513 13.0724 16 12.8906 16ZM11.9062 15.3333H12.5625V14.6666H11.9062V15.3333ZM8.95312 16H7.64062C7.5536 16 7.47014 15.9649 7.40861 15.9023C7.34707 15.8398 7.3125 15.755 7.3125 15.6666V14.3333C7.3125 14.2449 7.34707 14.1601 7.40861 14.0976C7.47014 14.0351 7.5536 14 7.64062 14H8.95312C9.04015 14 9.12361 14.0351 9.18514 14.0976C9.24668 14.1601 9.28125 14.2449 9.28125 14.3333V15.6666C9.28125 15.8513 9.13491 16 8.95312 16ZM7.96875 15.3333H8.625V14.6666H7.96875V15.3333ZM8.95312 19.3333H7.64062C7.5536 19.3333 7.47014 19.2982 7.40861 19.2357C7.34707 19.1732 7.3125 19.0884 7.3125 19V17.6666C7.3125 17.5782 7.34707 17.4934 7.40861 17.4309C7.47014 17.3684 7.5536 17.3333 7.64062 17.3333H8.95312C9.04015 17.3333 9.12361 17.3684 9.18514 17.4309C9.24668 17.4934 9.28125 17.5782 9.28125 17.6666V19C9.28125 19.1846 9.13491 19.3333 8.95312 19.3333ZM7.96875 18.6666H8.625V18H7.96875V18.6666Z" fill="#181C20"/>
<path d="M13.5469 22.0006H10.9219C10.8604 22.0008 10.8 21.9832 10.748 21.95L8.12297 20.2833C8.07578 20.2533 8.03686 20.2117 8.00988 20.1622C7.98291 20.1128 7.96875 20.0572 7.96875 20.0006V19.0006C7.96875 18.9122 8.00332 18.8274 8.06486 18.7649C8.12639 18.7024 8.20985 18.6673 8.29687 18.6673C8.3839 18.6673 8.46736 18.7024 8.52889 18.7649C8.59043 18.8274 8.625 18.9122 8.625 19.0006V19.816L11.0164 21.334H13.5469C13.6339 21.334 13.7174 21.3691 13.7789 21.4316C13.8404 21.4941 13.875 21.5789 13.875 21.6673C13.875 21.7557 13.8404 21.8405 13.7789 21.903C13.7174 21.9655 13.6339 22.0006 13.5469 22.0006ZM14.2031 21.334C14.1161 21.334 14.0326 21.2988 13.9711 21.2363C13.9096 21.1738 13.875 21.089 13.875 21.0006V20.0933L11.9528 16.8386C11.9221 16.787 11.906 16.7277 11.9062 16.6673V15.6673C11.9062 15.5789 11.9408 15.4941 12.0024 15.4316C12.0639 15.3691 12.1474 15.334 12.2344 15.334C12.3214 15.334 12.4049 15.3691 12.4664 15.4316C12.5279 15.4941 12.5625 15.5789 12.5625 15.6673V16.5746L14.4847 19.8293C14.5154 19.881 14.5315 19.9403 14.5312 20.0006V21.0006C14.5312 21.1853 14.3849 21.334 14.2031 21.334ZM18.1406 21.334C18.0536 21.334 17.9701 21.2988 17.9086 21.2363C17.8471 21.1738 17.8125 21.089 17.8125 21.0006V20.0613L15.8647 14.7846C15.851 14.7471 15.8438 14.7074 15.8437 14.6673V13.6673C15.8437 13.5789 15.8783 13.4941 15.9399 13.4316C16.0014 13.3691 16.0849 13.334 16.1719 13.334C16.2589 13.334 16.3424 13.3691 16.4039 13.4316C16.4654 13.4941 16.5 13.5789 16.5 13.6673V14.6066L18.4478 19.8833C18.4615 19.9208 18.4686 19.9606 18.4687 20.0006V21.0006C18.4687 21.1853 18.3224 21.334 18.1406 21.334Z" fill="#181C20"/>
<path d="M18.1406 21.334C18.0536 21.334 17.9701 21.2989 17.9086 21.2363C17.8471 21.1738 17.8125 21.089 17.8125 21.0006V20.0006C17.8125 19.94 17.8282 19.8806 17.8591 19.8293L19.7812 16.5746V15.6673C19.7812 15.5789 19.8158 15.4941 19.8774 15.4316C19.9389 15.3691 20.0223 15.334 20.1094 15.334C20.1964 15.334 20.2799 15.3691 20.3414 15.4316C20.4029 15.4941 20.4375 15.5789 20.4375 15.6673V16.6673C20.4375 16.728 20.4217 16.7873 20.3909 16.8386L18.4687 20.0933V21.0006C18.4687 21.1853 18.3224 21.334 18.1406 21.334ZM22.0781 21.334C21.9911 21.334 21.9076 21.2989 21.8461 21.2363C21.7846 21.1738 21.75 21.089 21.75 21.0006V20.0006C21.75 19.94 21.7657 19.8806 21.7966 19.8293L23.7187 16.5746V15.6673C23.7187 15.5789 23.7533 15.4941 23.8149 15.4316C23.8764 15.3691 23.9598 15.334 24.0469 15.334C24.1339 15.334 24.2174 15.3691 24.2789 15.4316C24.3404 15.4941 24.375 15.5789 24.375 15.6673V16.6673C24.375 16.728 24.3592 16.7873 24.3284 16.8386L22.4062 20.0933V21.0006C22.4062 21.1853 22.2599 21.334 22.0781 21.334ZM22.7344 30.6673H10.9219C10.8349 30.6673 10.7514 30.6322 10.6899 30.5697C10.6283 30.5071 10.5938 30.4224 10.5938 30.334V28.334C10.5938 28.2455 10.6283 28.1608 10.6899 28.0983C10.7514 28.0357 10.8349 28.0006 10.9219 28.0006H22.7344C22.8214 28.0006 22.9049 28.0357 22.9664 28.0983C23.0279 28.1608 23.0625 28.2455 23.0625 28.334V30.334C23.0625 30.5186 22.9162 30.6673 22.7344 30.6673ZM11.25 30.0006H22.4062V28.6673H11.25V30.0006ZM26.6719 32.0006C26.5848 32.0006 26.5014 31.9655 26.4399 31.903C26.3783 31.8405 26.3437 31.7557 26.3437 31.6673V29.6673C26.3437 29.484 26.1961 29.334 26.0156 29.334H25.3594C25.2723 29.334 25.1889 29.2988 25.1274 29.2363C25.0658 29.1738 25.0312 29.089 25.0312 29.0006C25.0312 28.9122 25.0658 28.8274 25.1274 28.7649C25.1889 28.7024 25.2723 28.6673 25.3594 28.6673H26.0156C26.5583 28.6673 27 29.116 27 29.6673V31.6673C27 31.8519 26.8537 32.0006 26.6719 32.0006Z" fill="#181C20"/>
<path d="M25.3597 30.0006H24.0472C23.9602 30.0006 23.8767 29.9655 23.8152 29.903C23.7536 29.8405 23.7191 29.7557 23.7191 29.6673V28.334C23.7191 28.2456 23.7536 28.1608 23.8152 28.0983C23.8767 28.0357 23.9602 28.0006 24.0472 28.0006H25.3597C25.4467 28.0006 25.5302 28.0357 25.5917 28.0983C25.6532 28.1608 25.6878 28.2456 25.6878 28.334V29.6673C25.6878 29.852 25.5415 30.0006 25.3597 30.0006ZM24.3753 29.334H25.0316V28.6673H24.3753V29.334ZM12.3994 23.3346H12.0713C12.0278 23.3346 11.986 23.3171 11.9553 23.2858C11.9245 23.2546 11.9072 23.2122 11.9072 23.168V22.8346C11.9072 22.7904 11.9245 22.748 11.9553 22.7168C11.986 22.6855 12.0278 22.668 12.0713 22.668H12.3994C12.4429 22.668 12.4847 22.6855 12.5154 22.7168C12.5462 22.748 12.5635 22.7904 12.5635 22.8346V23.168C12.5635 23.2122 12.5462 23.2546 12.5154 23.2858C12.4847 23.3171 12.4429 23.3346 12.3994 23.3346ZM12.3994 24.668H12.0713C12.0278 24.668 11.986 24.6504 11.9553 24.6191C11.9245 24.5879 11.9072 24.5455 11.9072 24.5013V24.168C11.9072 24.1238 11.9245 24.0814 11.9553 24.0501C11.986 24.0189 12.0278 24.0013 12.0713 24.0013H12.3994C12.4429 24.0013 12.4847 24.0189 12.5154 24.0501C12.5462 24.0814 12.5635 24.1238 12.5635 24.168V24.5013C12.5635 24.5455 12.5462 24.5879 12.5154 24.6191C12.4847 24.6504 12.4429 24.668 12.3994 24.668ZM12.3994 26.0013H12.0713C12.0278 26.0013 11.986 25.9837 11.9553 25.9525C11.9245 25.9212 11.9072 25.8788 11.9072 25.8346V25.5013C11.9072 25.4571 11.9245 25.4147 11.9553 25.3834C11.986 25.3522 12.0278 25.3346 12.0713 25.3346H12.3994C12.4429 25.3346 12.4847 25.3522 12.5154 25.3834C12.5462 25.4147 12.5635 25.4571 12.5635 25.5013V25.8346C12.5635 25.8788 12.5462 25.9212 12.5154 25.9525C12.4847 25.9837 12.4429 26.0013 12.3994 26.0013ZM23.5557 23.3346H23.2275C23.184 23.3346 23.1423 23.3171 23.1115 23.2858C23.0808 23.2546 23.0635 23.2122 23.0635 23.168V22.8346C23.0635 22.7904 23.0808 22.748 23.1115 22.7168C23.1423 22.6855 23.184 22.668 23.2275 22.668H23.5557C23.5992 22.668 23.6409 22.6855 23.6717 22.7168C23.7024 22.748 23.7197 22.7904 23.7197 22.8346V23.168C23.7197 23.2122 23.7024 23.2546 23.6717 23.2858C23.6409 23.3171 23.5992 23.3346 23.5557 23.3346ZM23.5557 24.668H23.2275C23.184 24.668 23.1423 24.6504 23.1115 24.6191C23.0808 24.5879 23.0635 24.5455 23.0635 24.5013V24.168C23.0635 24.1238 23.0808 24.0814 23.1115 24.0501C23.1423 24.0189 23.184 24.0013 23.2275 24.0013H23.5557C23.5992 24.0013 23.6409 24.0189 23.6717 24.0501C23.7024 24.0814 23.7197 24.1238 23.7197 24.168V24.5013C23.7197 24.5455 23.7024 24.5879 23.6717 24.6191C23.6409 24.6504 23.5992 24.668 23.5557 24.668ZM23.5557 26.0013H23.2275C23.184 26.0013 23.1423 25.9837 23.1115 25.9525C23.0808 25.9212 23.0635 25.8788 23.0635 25.8346V25.5013C23.0635 25.4571 23.0808 25.4147 23.1115 25.3834C23.1423 25.3522 23.184 25.3346 23.2275 25.3346H23.5557C23.5992 25.3346 23.6409 25.3522 23.6717 25.3834C23.7024 25.4147 23.7197 25.4571 23.7197 25.5013V25.8346C23.7197 25.8788 23.7024 25.9212 23.6717 25.9525C23.6409 25.9837 23.5992 26.0013 23.5557 26.0013ZM16.3369 23.3346H16.0088C15.9653 23.3346 15.9235 23.3171 15.8928 23.2858C15.862 23.2546 15.8447 23.2122 15.8447 23.168V22.8346C15.8447 22.7904 15.862 22.748 15.8928 22.7168C15.9235 22.6855 15.9653 22.668 16.0088 22.668H16.3369C16.3804 22.668 16.4222 22.6855 16.4529 22.7168C16.4837 22.748 16.501 22.7904 16.501 22.8346V23.168C16.501 23.2122 16.4837 23.2546 16.4529 23.2858C16.4222 23.3171 16.3804 23.3346 16.3369 23.3346ZM16.3369 24.668H16.0088C15.9653 24.668 15.9235 24.6504 15.8928 24.6191C15.862 24.5879 15.8447 24.5455 15.8447 24.5013V24.168C15.8447 24.1238 15.862 24.0814 15.8928 24.0501C15.9235 24.0189 15.9653 24.0013 16.0088 24.0013H16.3369C16.3804 24.0013 16.4222 24.0189 16.4529 24.0501C16.4837 24.0814 16.501 24.1238 16.501 24.168V24.5013C16.501 24.5455 16.4837 24.5879 16.4529 24.6191C16.4222 24.6504 16.3804 24.668 16.3369 24.668ZM16.3369 26.0013H16.0088C15.9653 26.0013 15.9235 25.9837 15.8928 25.9525C15.862 25.9212 15.8447 25.8788 15.8447 25.8346V25.5013C15.8447 25.4571 15.862 25.4147 15.8928 25.3834C15.9235 25.3522 15.9653 25.3346 16.0088 25.3346H16.3369C16.3804 25.3346 16.4222 25.3522 16.4529 25.3834C16.4837 25.4147 16.501 25.4571 16.501 25.5013V25.8346C16.501 25.8788 16.4837 25.9212 16.4529 25.9525C16.4222 25.9837 16.3804 26.0013 16.3369 26.0013ZM20.2744 23.3346H19.9463C19.9028 23.3346 19.861 23.3171 19.8303 23.2858C19.7995 23.2546 19.7822 23.2122 19.7822 23.168V22.8346C19.7822 22.7904 19.7995 22.748 19.8303 22.7168C19.861 22.6855 19.9028 22.668 19.9463 22.668H20.2744C20.3179 22.668 20.3597 22.6855 20.3904 22.7168C20.4212 22.748 20.4385 22.7904 20.4385 22.8346V23.168C20.4385 23.2122 20.4212 23.2546 20.3904 23.2858C20.3597 23.3171 20.3179 23.3346 20.2744 23.3346ZM20.2744 24.668H19.9463C19.9028 24.668 19.861 24.6504 19.8303 24.6191C19.7995 24.5879 19.7822 24.5455 19.7822 24.5013V24.168C19.7822 24.1238 19.7995 24.0814 19.8303 24.0501C19.861 24.0189 19.9028 24.0013 19.9463 24.0013H20.2744C20.3179 24.0013 20.3597 24.0189 20.3904 24.0501C20.4212 24.0814 20.4385 24.1238 20.4385 24.168V24.5013C20.4385 24.5455 20.4212 24.5879 20.3904 24.6191C20.3597 24.6504 20.3179 24.668 20.2744 24.668ZM20.2744 26.0013H19.9463C19.9028 26.0013 19.861 25.9837 19.8303 25.9525C19.7995 25.9212 19.7822 25.8788 19.7822 25.8346V25.5013C19.7822 25.4571 19.7995 25.4147 19.8303 25.3834C19.861 25.3522 19.9028 25.3346 19.9463 25.3346H20.2744C20.3179 25.3346 20.3597 25.3522 20.3904 25.3834C20.4212 25.4147 20.4385 25.4571 20.4385 25.5013V25.8346C20.4385 25.8788 20.4212 25.9212 20.3904 25.9525C20.3597 25.9837 20.3179 26.0013 20.2744 26.0013Z" fill="#181C20"/>
</svg>
