<svg width="34" height="35" viewBox="0 0 34 35" fill="none" xmlns="http://www.w3.org/2000/svg">
<path d="M26.9167 15.8092C26.9167 10.3324 22.4768 5.89258 17 5.89258C11.5232 5.89258 7.08333 10.3324 7.08333 15.8092M22.6667 20.7676V23.6009C22.6667 24.2592 22.6667 24.5883 22.7211 24.862C22.9447 25.986 23.8233 26.8651 24.9473 27.0886C25.221 27.1431 25.5501 27.1431 26.2083 27.1431C26.8666 27.1431 27.1957 27.1431 27.4694 27.0886C28.5934 26.8651 29.4718 25.986 29.6954 24.862C29.7498 24.5883 29.75 24.2592 29.75 23.6009V20.7676C29.75 20.1093 29.7498 19.7796 29.6954 19.5059C29.4718 18.3819 28.5934 17.5039 27.4694 17.2804C27.1957 17.2259 26.8666 17.2259 26.2083 17.2259C25.5501 17.2259 25.221 17.2259 24.9473 17.2804C23.8233 17.5039 22.9447 18.3819 22.7211 19.5059C22.6667 19.7796 22.6667 20.1093 22.6667 20.7676ZM11.3333 20.7676V23.6009C11.3333 24.2592 11.3331 24.5883 11.2787 24.862C11.0551 25.986 10.1767 26.8651 9.05269 27.0886C8.779 27.1431 8.44998 27.1431 7.79173 27.1431C7.13347 27.1431 6.80434 27.1431 6.53064 27.0886C5.40668 26.8651 4.52801 25.986 4.30444 24.862C4.25 24.5883 4.25 24.2592 4.25 23.6009V20.7676C4.25 20.1093 4.25 19.7796 4.30444 19.5059C4.52801 18.3819 5.40668 17.5039 6.53064 17.2804C6.80434 17.2259 7.13347 17.2259 7.79173 17.2259C8.44999 17.2259 8.779 17.2259 9.05269 17.2804C10.1767 17.5039 11.0551 18.3819 11.2787 19.5059C11.3331 19.7796 11.3333 20.1093 11.3333 20.7676Z" stroke="#181C20" stroke-width="2.5" stroke-linecap="round" stroke-linejoin="round"/>
</svg>
