<svg width="44" height="40" viewBox="0 0 44 40" fill="none" xmlns="http://www.w3.org/2000/svg">
<path fill-rule="evenodd" clip-rule="evenodd" d="M24.19 12.9447C24.6632 12.8813 25.1311 13.093 25.396 13.4903L28.3583 17.9338H33.0228C33.7132 17.9338 34.2728 18.4934 34.2728 19.1838C34.2728 19.8742 33.7132 20.4338 33.0228 20.4338H27.6893C27.2713 20.4338 26.881 20.225 26.6492 19.8772L24.7335 17.0037L22.2083 24.5792C22.0574 25.0322 21.6616 25.3595 21.1884 25.4229C20.7152 25.4863 20.2472 25.2746 19.9824 24.8773L17.02 20.4338H11.3555C10.6651 20.4338 10.1055 19.8742 10.1055 19.1838C10.1055 18.4934 10.6651 17.9338 11.3555 17.9338H17.689C18.107 17.9338 18.4973 18.1426 18.7291 18.4904L20.6448 21.3639L23.17 13.7884C23.321 13.3354 23.7167 13.0081 24.19 12.9447Z" fill="#2A638B"/>
<path fill-rule="evenodd" clip-rule="evenodd" d="M10.9835 3.44147C7.02855 4.20198 3.43952 7.39038 3.43952 13.4337C3.43952 19.517 8.05011 25.3043 13.0203 29.7223C15.4653 31.8957 17.9161 33.6663 19.7584 34.8946C20.6783 35.5079 21.4435 35.9839 21.9763 36.3053C22.0524 36.3512 22.1237 36.394 22.1901 36.4335C22.2564 36.394 22.3277 36.3512 22.4038 36.3053C22.9366 35.9839 23.7018 35.5079 24.6217 34.8946C26.464 33.6663 28.9149 31.8957 31.3598 29.7223C36.33 25.3043 40.9406 19.517 40.9406 13.4337C40.9406 7.39038 37.3516 4.20199 33.3966 3.44147C29.3306 2.65959 24.991 4.43052 23.3431 8.36549C23.1484 8.8302 22.6939 9.13265 22.1901 9.13265C21.6862 9.13265 21.2317 8.8302 21.037 8.36549C19.3891 4.43052 15.0495 2.65959 10.9835 3.44147ZM22.1901 37.8792C21.583 38.9719 21.5826 38.9717 21.5822 38.9715L21.581 38.9708L21.5771 38.9687L21.5641 38.9614L21.5167 38.9347C21.4758 38.9115 21.4165 38.8777 21.3401 38.8335C21.1872 38.7452 20.9656 38.6153 20.685 38.4461C20.1241 38.1077 19.3267 37.6115 18.3716 36.9748C16.4638 35.7029 13.9144 33.8622 11.3593 31.5909C6.32915 27.1196 0.939453 20.6841 0.939453 13.4337C0.939453 6.14317 5.42758 1.96397 10.5114 0.986376C14.7678 0.167876 19.5283 1.60356 22.1901 5.32611C24.8518 1.60357 29.6123 0.167877 33.8687 0.986377C38.9525 1.96397 43.4407 6.14317 43.4407 13.4337C43.4407 20.6841 38.051 27.1196 33.0208 31.5909C30.4657 33.8622 27.9163 35.7029 26.0086 36.9748C25.0534 37.6115 24.2561 38.1077 23.6951 38.4461C23.4146 38.6153 23.1929 38.7452 23.0401 38.8335C22.9636 38.8777 22.9043 38.9115 22.8634 38.9347L22.816 38.9614L22.803 38.9687L22.7991 38.9708L22.7979 38.9715C22.7975 38.9717 22.7971 38.9719 22.1901 37.8792ZM22.1901 37.8792L22.7971 38.9719C22.4196 39.1817 21.9605 39.1817 21.583 38.9719L22.1901 37.8792Z" fill="#2A638B"/>
</svg>
