<svg width="34" height="35" viewBox="0 0 34 35" fill="none" xmlns="http://www.w3.org/2000/svg">
<path d="M17.0003 21.6126L21.2503 17.3626M21.2503 17.3626L17.0003 13.1126M21.2503 17.3626H5.66699M12.7503 10.6315V10.5629C12.7503 8.97609 12.7503 8.18209 13.0591 7.57601C13.3308 7.04288 13.7639 6.60975 14.297 6.33811C14.9031 6.0293 15.6971 6.0293 17.2839 6.0293H23.8006C25.3874 6.0293 26.1797 6.0293 26.7858 6.33811C27.3189 6.60975 27.7535 7.04288 28.0251 7.57601C28.3337 8.1815 28.3337 8.97454 28.3337 10.5583V24.1677C28.3337 25.7514 28.3337 26.5433 28.0251 27.1488C27.7535 27.6819 27.3189 28.1158 26.7858 28.3875C26.1803 28.696 25.3884 28.696 23.8047 28.696H17.2793C15.6956 28.696 14.9025 28.696 14.297 28.3875C13.7639 28.1158 13.3308 27.6815 13.0591 27.1484C12.7503 26.5423 12.7503 25.7494 12.7503 24.1626V24.0918" stroke="#181C20" stroke-width="2.5" stroke-linecap="round" stroke-linejoin="round"/>
</svg>
