<svg width="30" height="30" viewBox="0 0 30 30" fill="none" xmlns="http://www.w3.org/2000/svg">
<path d="M12.5002 5H9.00024C7.60011 5 6.89953 5 6.36475 5.27248C5.89434 5.51217 5.51217 5.89434 5.27248 6.36475C5 6.89953 5 7.60011 5 9.00024V21.0002C5 22.4004 5 23.1001 5.27248 23.6349C5.51217 24.1053 5.89434 24.4881 6.36475 24.7278C6.899 25 7.59874 25 8.99614 25H21.0039C22.4013 25 23.1 25 23.6342 24.7278C24.1046 24.4881 24.4881 24.1049 24.7278 23.6345C25 23.1002 25 22.4013 25 21.0039V17.5M20 6.25L12.5 13.75V17.5H16.25L23.75 10M20 6.25L23.75 2.5L27.5 6.25L23.75 10M20 6.25L23.75 10" stroke="#181C20" stroke-width="2.5" stroke-linecap="round" stroke-linejoin="round"/>
</svg>
