<svg width="35" height="39" viewBox="0 0 35 39" fill="none" xmlns="http://www.w3.org/2000/svg">
<path d="M17.7051 15.7715C20.3356 15.7717 22.2695 17.5249 22.2695 19.4648V38.1816H13.1396V19.4648C13.1396 17.5248 15.0743 15.7715 17.7051 15.7715Z" fill="#2A638B" stroke="#2A638B" stroke-width="1.19892"/>
<path fill-rule="evenodd" clip-rule="evenodd" d="M11.3849 13.4995C10.0829 15.0566 9.58889 16.8673 9.58889 17.8366V31.4026H6.6377V17.8366C6.6377 16.1402 7.39793 13.6669 9.12092 11.6064C10.8954 9.48425 13.6984 7.79297 17.7047 7.79297C21.711 7.79297 24.514 9.48425 26.2885 11.6064C28.0115 13.6669 28.7717 16.1402 28.7717 17.8366V31.4026H25.8205V17.8366C25.8205 16.8673 25.3265 15.0566 24.0245 13.4995C22.774 12.0041 20.7813 10.7442 17.7047 10.7442C14.6281 10.7442 12.6354 12.0041 11.3849 13.4995Z" fill="#2A638B"/>
<path fill-rule="evenodd" clip-rule="evenodd" d="M17.7047 3.36526C7.07768 3.36526 3.68655 10.8209 3.68655 13.3137V31.4017H0.735352V13.3137C0.735352 9.19007 5.44867 0.414062 17.7047 0.414062C29.9608 0.414062 34.6741 9.19007 34.6741 13.3137V31.4017H31.7229V13.3137C31.7229 10.8209 28.3318 3.36526 17.7047 3.36526Z" fill="#2A638B"/>
</svg>
