<svg width="34" height="35" viewBox="0 0 34 35" fill="none" xmlns="http://www.w3.org/2000/svg">
<path d="M18.3118 29.886C21.2956 28.5355 28.3337 24.3637 28.3337 15.0587V9.43716C28.3337 7.85344 28.3337 7.06041 28.0251 6.45492C27.7535 5.92179 27.3189 5.48866 26.7858 5.21702C26.1797 4.9082 25.3874 4.9082 23.8006 4.9082H10.2006C8.61379 4.9082 7.81979 4.9082 7.2137 5.21702C6.68058 5.48866 6.24745 5.92179 5.97581 6.45492C5.66699 7.061 5.66699 7.855 5.66699 9.44181V15.0587C5.66699 24.3637 12.7047 28.5355 15.6884 29.886C16.0047 30.0292 16.1637 30.1006 16.5217 30.1621C16.7475 30.2009 17.2546 30.2009 17.4804 30.1621C17.837 30.1009 17.9943 30.0297 18.3081 29.8876L18.3118 29.886Z" stroke="#181C20" stroke-width="2.5" stroke-linecap="round" stroke-linejoin="round"/>
</svg>
