<svg width="47" height="47" viewBox="0 0 47 47" fill="none" xmlns="http://www.w3.org/2000/svg">
<path d="M23.5 29.4492C26.6756 29.4492 29.25 26.8749 29.25 23.6992C29.25 20.5236 26.6756 17.9492 23.5 17.9492C20.3244 17.9492 17.75 20.5236 17.75 23.6992C17.75 26.8749 20.3244 29.4492 23.5 29.4492Z" fill="#2A638B"/>
<path d="M13.4375 23.6994C13.4375 20.3842 15.1044 17.4815 17.5985 15.88L15.5194 13.6777C14.9487 14.0982 14.417 14.5692 13.9307 15.085C11.7587 17.386 10.5625 20.4454 10.5625 23.6994C10.5625 26.9535 11.7587 30.0129 13.9307 32.3139C14.4171 32.8297 14.9488 33.3006 15.5195 33.7211L17.5986 31.5189C15.1044 29.9174 13.4375 27.0147 13.4375 23.6994Z" fill="#2A638B"/>
<path d="M33.5625 23.6994C33.5625 27.0146 31.8956 29.9173 29.4015 31.5188L31.4805 33.721C32.0512 33.3005 32.583 32.8296 33.0693 32.3138C35.2413 30.0128 36.4375 26.9534 36.4375 23.6994C36.4375 20.4453 35.2413 17.3859 33.0692 15.085C32.5829 14.5692 32.0511 14.0982 31.4804 13.6777L29.4014 15.88C31.8956 17.4814 33.5625 20.3841 33.5625 23.6994Z" fill="#2A638B"/>
<path d="M6.25 23.6992C6.25 18.7059 8.51864 14.274 12.0236 11.4969L9.9725 9.32422C9.429 9.77752 8.91307 10.2629 8.42745 10.7777C6.84423 12.455 5.60079 14.4089 4.73182 16.5853C3.8315 18.8402 3.375 21.2335 3.375 23.6992C3.375 26.1648 3.8315 28.5583 4.73182 30.8131C5.60079 32.9897 6.84423 34.9435 8.42745 36.6208C8.91311 37.1356 9.42904 37.621 9.9725 38.0743L12.0235 35.9016C8.51864 33.1245 6.25 28.6926 6.25 23.6992Z" fill="#2A638B"/>
<path d="M40.7502 23.6992C40.7502 28.6926 38.4815 33.1245 34.9767 35.9015L37.0276 38.0441C37.5667 37.5948 38.0824 37.1401 38.5727 36.6207C40.156 34.9434 41.3994 32.9896 42.2684 30.813C43.1686 28.5583 43.6252 26.1648 43.6252 23.6992C43.6252 21.2335 43.1686 18.8402 42.2684 16.5853C41.3994 14.4088 40.156 12.455 38.5727 10.7777C38.0871 10.2628 37.5712 9.77747 37.0276 9.32422L34.9766 11.4969C38.4815 14.274 40.7502 18.7059 40.7502 23.6992Z" fill="#2A638B"/>
</svg>
